<svg xmlns="http://www.w3.org/2000/svg" xmlns:xlink="http://www.w3.org/1999/xlink" width="500" zoomAndPan="magnify" viewBox="0 0 375 374.999991" height="500" preserveAspectRatio="xMidYMid meet" version="1.0"><defs><g/><clipPath id="id1"><path d="M 105.019531 68.242188 L 299.269531 68.242188 L 299.269531 262.492188 L 105.019531 262.492188 Z M 105.019531 68.242188 " clip-rule="nonzero"/></clipPath></defs><g fill="#5e17eb" fill-opacity="1"><g transform="translate(104.705939, 231.256308)"><g><path d="M 5.734375 -19.265625 C 6.523438 -16.804688 7.242188 -14.425781 7.890625 -12.125 C 8.546875 -9.832031 8.992188 -8.050781 9.234375 -6.78125 C 9.484375 -5.507812 9.566406 -4.566406 9.484375 -3.953125 C 9.398438 -3.347656 9.222656 -2.847656 8.953125 -2.453125 C 8.691406 -2.054688 8.367188 -1.734375 7.984375 -1.484375 C 7.609375 -1.234375 7.226562 -0.988281 6.84375 -0.75 C 4.519531 0.5 2.742188 -0.503906 1.515625 -3.765625 C 0.429688 -6.285156 -0.453125 -8.34375 -1.140625 -9.9375 C -1.835938 -11.53125 -2.410156 -12.84375 -2.859375 -13.875 C -3.316406 -14.90625 -3.691406 -15.769531 -3.984375 -16.46875 C -4.285156 -17.164062 -4.5625 -17.859375 -4.8125 -18.546875 C -5.0625 -19.242188 -5.328125 -20.050781 -5.609375 -20.96875 C -5.898438 -21.882812 -6.28125 -23.097656 -6.75 -24.609375 C -7.59375 -23.773438 -8.507812 -23.238281 -9.5 -23 C -10.9375 -22.644531 -12.144531 -23.316406 -13.125 -25.015625 C -13.570312 -25.804688 -13.691406 -26.765625 -13.484375 -27.890625 C -13.378906 -28.472656 -13.234375 -29.128906 -13.046875 -29.859375 C -12.648438 -31.347656 -11.351562 -33.613281 -9.15625 -36.65625 C -6.851562 -39.78125 -4.625 -42.117188 -2.46875 -43.671875 C -1.976562 -44.203125 -1.335938 -44.578125 -0.546875 -44.796875 C 0.242188 -45.015625 0.972656 -45.066406 1.640625 -44.953125 C 2.304688 -44.847656 2.820312 -44.5625 3.1875 -44.09375 C 3.550781 -43.632812 3.566406 -42.988281 3.234375 -42.15625 C 3.097656 -41.71875 3.140625 -41.222656 3.359375 -40.671875 C 3.578125 -40.128906 3.800781 -39.550781 4.03125 -38.9375 C 4.257812 -38.320312 4.390625 -37.695312 4.421875 -37.0625 C 4.460938 -36.425781 4.203125 -35.832031 3.640625 -35.28125 C 3.453125 -34.875 3.09375 -34.410156 2.5625 -33.890625 C 2.039062 -33.378906 1.695312 -33.035156 1.53125 -32.859375 C 1.375 -32.679688 1.316406 -32.53125 1.359375 -32.40625 C 1.910156 -30.757812 2.582031 -28.769531 3.375 -26.4375 C 4.164062 -24.113281 4.953125 -21.722656 5.734375 -19.265625 Z M -6.6875 -25.265625 C -6.726562 -25.234375 -6.742188 -25.210938 -6.734375 -25.203125 C -6.734375 -25.191406 -6.710938 -25.203125 -6.671875 -25.234375 Z M -6.6875 -25.265625 "/></g></g></g><g fill="#5e17eb" fill-opacity="1"><g transform="translate(123.31705, 217.205489)"><g><path d="M 17.109375 -19.140625 C 18.097656 -17.828125 19.117188 -16.816406 20.171875 -16.109375 C 20.773438 -15.304688 21.015625 -14.597656 20.890625 -13.984375 C 20.765625 -13.367188 20.429688 -12.84375 19.890625 -12.40625 C 19.347656 -11.976562 18.675781 -11.648438 17.875 -11.421875 C 17.070312 -11.203125 16.320312 -11.097656 15.625 -11.109375 C 14.9375 -11.128906 14.453125 -11.195312 14.171875 -11.3125 C 13.890625 -11.425781 13.453125 -11.585938 12.859375 -11.796875 C 10.972656 -13.441406 9.816406 -14.566406 9.390625 -15.171875 C 8.960938 -15.785156 8.632812 -16.332031 8.40625 -16.8125 C 7.644531 -15.238281 7.203125 -14.035156 7.078125 -13.203125 C 6.867188 -11.679688 6.976562 -10.019531 7.40625 -8.21875 C 8.03125 -6.976562 8.300781 -6.28125 8.21875 -6.125 C 8.144531 -5.96875 8.019531 -5.804688 7.84375 -5.640625 C 7.675781 -5.472656 7.535156 -5.226562 7.421875 -4.90625 C 7.316406 -4.582031 7.195312 -4.300781 7.0625 -4.0625 C 6.9375 -3.820312 6.816406 -3.570312 6.703125 -3.3125 C 6.441406 -2.6875 6.238281 -2.320312 6.09375 -2.21875 C 5 -0.695312 3.5 0.125 1.59375 0.25 C 0.769531 0.289062 -0.00390625 0.132812 -0.734375 -0.21875 C -1.472656 -0.582031 -2.019531 -1.148438 -2.375 -1.921875 C -4.769531 -7.296875 -6.835938 -13.0625 -8.578125 -19.21875 C -9.617188 -22.957031 -10.253906 -26.0625 -10.484375 -28.53125 C -10.523438 -29.125 -10.59375 -29.738281 -10.6875 -30.375 C -10.84375 -31.644531 -10.945312 -32.515625 -11 -32.984375 C -11.726562 -33.441406 -12.144531 -34.007812 -12.25 -34.6875 C -12.351562 -35.363281 -12.242188 -36.039062 -11.921875 -36.71875 C -11.609375 -37.40625 -11.140625 -38.0625 -10.515625 -38.6875 C -9.898438 -39.3125 -9.257812 -39.816406 -8.59375 -40.203125 C -6.9375 -41.109375 -5.703125 -41.128906 -4.890625 -40.265625 C -4.703125 -39.703125 -4.503906 -39.007812 -4.296875 -38.1875 C -4.097656 -37.375 -3.882812 -36.554688 -3.65625 -35.734375 C -3.4375 -34.910156 -3.242188 -34.140625 -3.078125 -33.421875 C -2.910156 -32.703125 -2.78125 -32.171875 -2.6875 -31.828125 C -2.59375 -31.484375 -2.414062 -30.914062 -2.15625 -30.125 C -1.894531 -29.332031 -1.601562 -28.484375 -1.28125 -27.578125 C -0.96875 -26.671875 -0.675781 -25.835938 -0.40625 -25.078125 L 0.109375 -23.4375 C 0.273438 -23.019531 0.515625 -22.375 0.828125 -21.5 C 1.140625 -20.625 1.5625 -19.578125 2.09375 -18.359375 C 2.238281 -18.847656 2.285156 -19.335938 2.234375 -19.828125 C 2.179688 -20.328125 2.203125 -20.9375 2.296875 -21.65625 C 2.398438 -22.382812 2.625 -23.203125 2.96875 -24.109375 C 3.3125 -25.015625 3.804688 -25.8125 4.453125 -26.5 C 5.859375 -27.96875 7.710938 -28.546875 10.015625 -28.234375 C 11.742188 -27.992188 13.171875 -26.742188 14.296875 -24.484375 C 14.765625 -23.554688 15.207031 -22.597656 15.625 -21.609375 C 16.039062 -20.617188 16.535156 -19.796875 17.109375 -19.140625 Z M 17.109375 -19.140625 "/></g></g></g><g fill="#5e17eb" fill-opacity="1"><g transform="translate(145.227736, 200.663591)"><g><path d="M -6.765625 -19.765625 C -6.523438 -20.523438 -5.945312 -21.09375 -5.03125 -21.46875 C -4.863281 -21.5625 -4.707031 -21.664062 -4.5625 -21.78125 C -4.863281 -23.300781 -4.359375 -24.59375 -3.046875 -25.65625 C -2.722656 -25.925781 -2.289062 -26.34375 -1.75 -26.90625 C -1.207031 -27.46875 -0.441406 -28.007812 0.546875 -28.53125 C 1.535156 -29.050781 2.503906 -29.378906 3.453125 -29.515625 C 5.503906 -29.828125 7.242188 -29.347656 8.671875 -28.078125 C 10.898438 -26.359375 12.601562 -23.921875 13.78125 -20.765625 C 15.113281 -17.304688 15.445312 -13.988281 14.78125 -10.8125 C 14.488281 -9.351562 13.925781 -8.140625 13.09375 -7.171875 C 12.269531 -6.210938 11.46875 -5.421875 10.6875 -4.796875 C 9.914062 -4.171875 9.195312 -3.617188 8.53125 -3.140625 C 7.875 -2.671875 7.1875 -2.257812 6.46875 -1.90625 C 4.9375 -1.175781 3.363281 -0.976562 1.75 -1.3125 C -0.113281 -1.664062 -1.851562 -3.070312 -3.46875 -5.53125 C -4.9375 -7.6875 -5.992188 -10.179688 -6.640625 -13.015625 C -7.285156 -15.847656 -7.328125 -18.097656 -6.765625 -19.765625 Z M 5.390625 -17.21875 C 4.921875 -16.550781 4.40625 -16.03125 3.84375 -15.65625 C 3.769531 -15.175781 3.742188 -14.703125 3.765625 -14.234375 C 3.796875 -13.765625 3.734375 -13.269531 3.578125 -12.75 C 3.429688 -12.226562 3.335938 -11.988281 3.296875 -12.03125 C 3.328125 -11.125 3.441406 -10.253906 3.640625 -9.421875 C 3.847656 -8.585938 4.332031 -7.945312 5.09375 -7.5 C 6.164062 -8.15625 6.878906 -8.734375 7.234375 -9.234375 C 7.585938 -9.734375 7.804688 -10.347656 7.890625 -11.078125 C 7.984375 -11.804688 7.925781 -12.539062 7.71875 -13.28125 C 7.363281 -14.6875 6.585938 -16 5.390625 -17.21875 Z M 5.390625 -17.21875 "/></g></g></g><g fill="#5e17eb" fill-opacity="1"><g transform="translate(164.654472, 185.997)"><g><path d="M -7.03125 -20.03125 C -7.332031 -20.519531 -7.320312 -21.117188 -7 -21.828125 C -6.6875 -22.546875 -6.195312 -23.15625 -5.53125 -23.65625 C -4.863281 -24.164062 -4.097656 -24.5 -3.234375 -24.65625 C -2.367188 -24.820312 -1.546875 -24.625 -0.765625 -24.0625 C -0.046875 -27.476562 1.335938 -29.628906 3.390625 -30.515625 C 4.085938 -30.847656 4.859375 -30.882812 5.703125 -30.625 C 6.046875 -32.78125 6.84375 -34.625 8.09375 -36.15625 C 9.96875 -37.6875 11.691406 -38.289062 13.265625 -37.96875 C 13.484375 -37.9375 13.707031 -37.890625 13.9375 -37.828125 C 14.570312 -37.710938 14.960938 -37.613281 15.109375 -37.53125 C 16.066406 -37.175781 17.382812 -35.675781 19.0625 -33.03125 C 21.25 -29.59375 23.09375 -25.878906 24.59375 -21.890625 C 25.320312 -19.828125 25.5 -18.613281 25.125 -18.25 C 24.90625 -18.007812 24.671875 -17.832031 24.421875 -17.71875 C 24.171875 -17.613281 23.960938 -17.507812 23.796875 -17.40625 C 23.628906 -17.300781 23.640625 -17.097656 23.828125 -16.796875 C 23.828125 -15.765625 23.316406 -14.863281 22.296875 -14.09375 C 21.304688 -13.34375 20.234375 -13.019531 19.078125 -13.125 C 17.835938 -13.195312 17 -13.757812 16.5625 -14.8125 C 16.132812 -15.863281 15.71875 -16.960938 15.3125 -18.109375 C 14.914062 -19.265625 14.515625 -20.46875 14.109375 -21.71875 C 13.398438 -23.894531 12.695312 -26.191406 12 -28.609375 C 11.925781 -27.640625 12.0625 -25.992188 12.40625 -23.671875 C 12.75 -21.347656 12.9375 -19.941406 12.96875 -19.453125 C 13.175781 -18.304688 13.328125 -17.382812 13.421875 -16.6875 C 13.515625 -16 13.441406 -15.335938 13.203125 -14.703125 C 12.960938 -14.078125 12.675781 -13.582031 12.34375 -13.21875 C 12.019531 -12.851562 11.664062 -12.5625 11.28125 -12.34375 C 10.375 -11.851562 9.53125 -11.765625 8.75 -12.078125 C 8.519531 -12.222656 8.296875 -12.363281 8.078125 -12.5 C 7.859375 -12.644531 7.585938 -12.875 7.265625 -13.1875 C 6.617188 -13.894531 5.773438 -15.21875 4.734375 -17.15625 L 4.765625 -16.984375 C 4.828125 -17.515625 4.867188 -17.664062 4.890625 -17.4375 C 4.960938 -15.28125 5.050781 -13.925781 5.15625 -13.375 C 5.257812 -12.832031 5.378906 -12.234375 5.515625 -11.578125 C 5.660156 -10.929688 5.820312 -10.179688 6 -9.328125 C 6.175781 -8.484375 6.363281 -7.75 6.5625 -7.125 C 6.757812 -6.5 6.914062 -5.851562 7.03125 -5.1875 C 7.363281 -2.414062 5.992188 -0.164062 2.921875 1.5625 C 2.273438 1.9375 1.664062 2.175781 1.09375 2.28125 C 0.519531 2.394531 0.109375 2.210938 -0.140625 1.734375 C -0.703125 0.597656 -1.484375 -1.390625 -2.484375 -4.234375 C -4.515625 -9.847656 -5.890625 -13.410156 -6.609375 -14.921875 C -6.765625 -15.503906 -6.953125 -16.078125 -7.171875 -16.640625 C -7.398438 -17.210938 -7.566406 -17.726562 -7.671875 -18.1875 C -7.992188 -19.226562 -7.78125 -19.84375 -7.03125 -20.03125 Z M 12.75 -20.578125 L 12.8125 -20.5 C 12.789062 -20.632812 12.769531 -20.660156 12.75 -20.578125 Z M 12.75 -20.578125 "/></g></g></g><g fill="#5e17eb" fill-opacity="1"><g transform="translate(193.09017, 164.528918)"><g><path d="M 4.96875 -28.734375 L 5.15625 -28.8125 C 5.195312 -28.84375 5.226562 -28.847656 5.25 -28.828125 C 5.707031 -29.566406 6.382812 -29.785156 7.28125 -29.484375 C 7.863281 -29.265625 8.550781 -28.78125 9.34375 -28.03125 C 10.289062 -26.875 11.410156 -25.132812 12.703125 -22.8125 C 15.335938 -18.132812 16.941406 -15.363281 17.515625 -14.5 C 18.210938 -13.675781 18.125 -12.6875 17.25 -11.53125 C 16.519531 -10.5 15.550781 -9.78125 14.34375 -9.375 C 13.070312 -8.957031 12.242188 -9.171875 11.859375 -10.015625 C 11.960938 -9.492188 11.972656 -9.078125 11.890625 -8.765625 C 11.816406 -8.460938 11.59375 -7.945312 11.21875 -7.21875 C 10.851562 -6.5 10.207031 -5.644531 9.28125 -4.65625 C 8.363281 -3.664062 7.34375 -2.8125 6.21875 -2.09375 C 5.09375 -1.382812 3.925781 -0.914062 2.71875 -0.6875 C 1.507812 -0.457031 0.414062 -0.679688 -0.5625 -1.359375 C -2.476562 -2.710938 -4.109375 -5.035156 -5.453125 -8.328125 C -6.335938 -10.515625 -6.660156 -12.78125 -6.421875 -15.125 C -6.128906 -17.820312 -5.429688 -20.398438 -4.328125 -22.859375 C -3.503906 -24.703125 -2.492188 -26.1875 -1.296875 -27.3125 C -0.878906 -27.695312 -0.472656 -27.976562 -0.078125 -28.15625 C 0.304688 -28.332031 0.710938 -28.53125 1.140625 -28.75 C 1.578125 -28.96875 2.03125 -29.132812 2.5 -29.25 C 3.664062 -29.550781 4.488281 -29.378906 4.96875 -28.734375 Z M 5.53125 -13.71875 C 5.445312 -14.195312 5.265625 -14.738281 4.984375 -15.34375 C 4.703125 -15.945312 4.425781 -16.632812 4.15625 -17.40625 C 2.757812 -15.070312 1.984375 -12.910156 1.828125 -10.921875 C 1.648438 -8.734375 2.40625 -7.890625 4.09375 -8.390625 C 5.445312 -8.953125 6.132812 -9.757812 6.15625 -10.8125 C 6.15625 -11.28125 6.070312 -11.800781 5.90625 -12.375 C 5.738281 -12.957031 5.601562 -13.578125 5.5 -14.234375 C 5.519531 -14.054688 5.53125 -13.882812 5.53125 -13.71875 Z M 5.53125 -13.71875 "/></g></g></g><g fill="#5e17eb" fill-opacity="1"><g transform="translate(212.961787, 149.526455)"><g><path d="M 14.109375 -9.25 C 13.742188 -7.726562 13.050781 -6.265625 12.03125 -4.859375 C 11.007812 -3.453125 9.835938 -2.226562 8.515625 -1.1875 C 7.203125 -0.15625 5.835938 0.617188 4.421875 1.140625 C 3.003906 1.671875 1.675781 1.816406 0.4375 1.578125 C -0.988281 1.347656 -1.894531 0.71875 -2.28125 -0.3125 C -2.414062 -0.757812 -2.398438 -1.195312 -2.234375 -1.625 C -2.078125 -2.050781 -1.738281 -2.378906 -1.21875 -2.609375 C -0.90625 -2.816406 -0.75 -3.0625 -0.75 -3.34375 C -0.757812 -3.632812 -0.800781 -3.9375 -0.875 -4.25 C -0.957031 -4.5625 -1.015625 -4.867188 -1.046875 -5.171875 C -1.085938 -5.472656 -0.972656 -5.722656 -0.703125 -5.921875 C 3.742188 -9.085938 5.722656 -11.1875 5.234375 -12.21875 C 4.722656 -12.257812 4.175781 -12.210938 3.59375 -12.078125 C 3.007812 -11.953125 2.421875 -11.820312 1.828125 -11.6875 C 0.367188 -11.363281 -0.769531 -11.351562 -1.59375 -11.65625 C -2.25 -11.550781 -3.050781 -11.878906 -4 -12.640625 C -4.445312 -12.960938 -4.835938 -13.347656 -5.171875 -13.796875 C -5.503906 -14.242188 -5.738281 -14.707031 -5.875 -15.1875 C -6.675781 -16.09375 -6.882812 -17.601562 -6.5 -19.71875 C -6.394531 -20.300781 -6.222656 -20.972656 -5.984375 -21.734375 C -5.742188 -22.503906 -5.234375 -23.453125 -4.453125 -24.578125 C -3.679688 -25.703125 -2.84375 -26.734375 -1.9375 -27.671875 C -1.039062 -28.609375 -0.160156 -29.363281 0.703125 -29.9375 C 1.578125 -30.519531 2.320312 -30.773438 2.9375 -30.703125 C 3.5625 -30.628906 4.175781 -30.410156 4.78125 -30.046875 C 5.382812 -29.679688 5.832031 -29.222656 6.125 -28.671875 C 6.769531 -27.410156 6.4375 -25.953125 5.125 -24.296875 C 3.300781 -22.453125 2.519531 -21.4375 2.78125 -21.25 C 2.8125 -21.195312 2.765625 -21.066406 2.640625 -20.859375 C 5.535156 -20.984375 7.832031 -20.695312 9.53125 -20 C 11.84375 -19.03125 13.453125 -17.21875 14.359375 -14.5625 C 15.003906 -13.957031 15.035156 -12.625 14.453125 -10.5625 C 14.316406 -10.0625 14.203125 -9.625 14.109375 -9.25 Z M 14.109375 -9.25 "/></g></g></g><g fill="#8c52ff" fill-opacity="1"><g transform="translate(144.542592, 258.505048)"><g><path d="M -5.859375 -38.078125 C -5.109375 -37.597656 -4.640625 -37.253906 -4.453125 -37.046875 C -4.046875 -36.609375 -3.914062 -36.082031 -4.0625 -35.46875 C -4.050781 -35.445312 -4.050781 -35.390625 -4.0625 -35.296875 C -2.957031 -34.316406 -2.082031 -33.269531 -1.4375 -32.15625 C -0.800781 -31.050781 -0.226562 -29.953125 0.28125 -28.859375 C -0.101562 -32.140625 -0.300781 -34.609375 -0.3125 -36.265625 C -0.34375 -39.691406 -0.00390625 -42.410156 0.703125 -44.421875 C 0.960938 -45.054688 1.378906 -45.695312 1.953125 -46.34375 C 2.523438 -46.988281 3.160156 -47.492188 3.859375 -47.859375 C 4.554688 -48.234375 5.257812 -48.375 5.96875 -48.28125 C 6.675781 -48.195312 7.300781 -47.742188 7.84375 -46.921875 C 10.789062 -41.566406 13.441406 -36.507812 15.796875 -31.75 C 18.148438 -26.988281 20.125 -22.238281 21.71875 -17.5 L 21.765625 -17.4375 L 21.71875 -17.40625 C 22.101562 -16.289062 21.84375 -15.097656 20.9375 -13.828125 C 20.039062 -12.597656 19.019531 -11.789062 17.875 -11.40625 C 16.519531 -10.882812 15.5625 -11.097656 15 -12.046875 L 14.40625 -12.921875 L 14.359375 -13 C 14.003906 -13.65625 13.753906 -14.09375 13.609375 -14.3125 C 13.460938 -14.539062 13.363281 -14.710938 13.3125 -14.828125 C 12.882812 -15.503906 12.539062 -16.179688 12.28125 -16.859375 C 12.019531 -17.535156 11.796875 -18.070312 11.609375 -18.46875 C 11.421875 -18.875 11.242188 -19.257812 11.078125 -19.625 C 10.921875 -20 10.789062 -20.273438 10.6875 -20.453125 C 10.707031 -18.460938 10.628906 -17.1875 10.453125 -16.625 C 9.984375 -15.1875 9.078125 -13.992188 7.734375 -13.046875 C 6.867188 -12.484375 6.253906 -12.316406 5.890625 -12.546875 C 5.128906 -13.054688 4.65625 -13.335938 4.46875 -13.390625 C 4.164062 -13.460938 3.785156 -13.695312 3.328125 -14.09375 C 4.828125 -10.769531 5.722656 -8.28125 6.015625 -6.625 C 6.109375 -5.976562 6.171875 -5.375 6.203125 -4.8125 C 6.472656 -3.738281 6.113281 -2.566406 5.125 -1.296875 C 4.207031 -0.0976562 3.078125 0.710938 1.734375 1.140625 C 0.378906 1.609375 -0.601562 1.378906 -1.21875 0.453125 C -1.84375 -0.472656 -2.507812 -1.722656 -3.21875 -3.296875 C -3.925781 -4.878906 -4.632812 -6.585938 -5.34375 -8.421875 C -7.695312 -14.140625 -9.148438 -17.914062 -9.703125 -19.75 C -10.253906 -21.582031 -10.65625 -23.050781 -10.90625 -24.15625 C -11.445312 -26.726562 -11.695312 -28.707031 -11.65625 -30.09375 C -12.070312 -32.226562 -11.507812 -34.128906 -9.96875 -35.796875 C -8.757812 -37.128906 -7.390625 -37.890625 -5.859375 -38.078125 Z M -5.859375 -38.078125 "/></g></g></g><g fill="#8c52ff" fill-opacity="1"><g transform="translate(170.160668, 239.164184)"><g><path d="M -7.46875 -19.921875 C -7.28125 -21.109375 -6.800781 -22.082031 -6.03125 -22.84375 C -5.257812 -23.601562 -4.429688 -24.078125 -3.546875 -24.265625 C -2.671875 -24.460938 -1.832031 -24.347656 -1.03125 -23.921875 C -0.226562 -23.503906 0.285156 -22.726562 0.515625 -21.59375 C 0.609375 -19.71875 0.945312 -17.875 1.53125 -16.0625 C 2.125 -14.257812 2.765625 -12.472656 3.453125 -10.703125 C 4.640625 -13.847656 4.929688 -17.425781 4.328125 -21.4375 C 4.128906 -22.601562 3.960938 -23.816406 3.828125 -25.078125 L 3.59375 -26.515625 L 3.375 -29.15625 C 3.164062 -29.738281 3.195312 -30.238281 3.46875 -30.65625 C 3.75 -31.070312 4.101562 -31.441406 4.53125 -31.765625 C 4.96875 -32.097656 5.410156 -32.421875 5.859375 -32.734375 C 6.304688 -33.054688 6.617188 -33.484375 6.796875 -34.015625 C 6.984375 -34.546875 7.351562 -34.96875 7.90625 -35.28125 C 8.457031 -35.601562 9.039062 -35.78125 9.65625 -35.8125 C 10.269531 -35.851562 10.828125 -35.757812 11.328125 -35.53125 C 11.828125 -35.3125 12.128906 -34.953125 12.234375 -34.453125 C 12.878906 -31.441406 14.59375 -26.222656 17.375 -18.796875 C 17.96875 -17.128906 18.425781 -15.695312 18.75 -14.5 C 18.707031 -13.269531 18.316406 -12.160156 17.578125 -11.171875 C 16.835938 -10.191406 16.015625 -9.445312 15.109375 -8.9375 C 14.203125 -8.425781 13.328125 -8.210938 12.484375 -8.296875 C 11.648438 -8.378906 11.109375 -8.867188 10.859375 -9.765625 C 10.597656 -8.679688 10.269531 -7.617188 9.875 -6.578125 C 9.488281 -5.546875 8.828125 -4.5625 7.890625 -3.625 C 6.953125 -2.6875 5.910156 -1.96875 4.765625 -1.46875 C 3.617188 -0.976562 2.457031 -0.8125 1.28125 -0.96875 C 0.101562 -1.125 -0.929688 -1.738281 -1.828125 -2.8125 C -4.921875 -6.601562 -6.800781 -12.304688 -7.46875 -19.921875 Z M -7.46875 -19.921875 "/></g></g></g><g fill="#8c52ff" fill-opacity="1"><g transform="translate(192.627461, 222.202443)"><g><path d="M 6.1875 -6.9375 C 6.414062 -6.300781 6.582031 -5.707031 6.6875 -5.15625 C 6.789062 -4.613281 6.773438 -4.019531 6.640625 -3.375 C 6.503906 -2.726562 6.28125 -2.046875 5.96875 -1.328125 C 5.65625 -0.609375 5.300781 -0.00390625 4.90625 0.484375 C 3.957031 1.597656 3.113281 1.710938 2.375 0.828125 C 2.113281 0.640625 1.847656 0.613281 1.578125 0.75 C 1.316406 0.894531 1.050781 0.988281 0.78125 1.03125 C 0.101562 1.195312 -0.5 0.710938 -1.03125 -0.421875 C -1.65625 -2.085938 -2.46875 -4.066406 -3.46875 -6.359375 C -4.46875 -8.660156 -5.472656 -11.253906 -6.484375 -14.140625 C -8.992188 -21.109375 -10.65625 -27.835938 -11.46875 -34.328125 C -11.46875 -34.671875 -11.488281 -35.101562 -11.53125 -35.625 C -11.582031 -36.15625 -11.539062 -36.707031 -11.40625 -37.28125 C -11.144531 -38.71875 -10.226562 -39.695312 -8.65625 -40.21875 C -8.425781 -39.875 -8.128906 -39.640625 -7.765625 -39.515625 C -7.398438 -39.390625 -7 -39.273438 -6.5625 -39.171875 C -5.519531 -38.953125 -4.828125 -38.566406 -4.484375 -38.015625 C -2.410156 -29.835938 0.460938 -21.117188 4.140625 -11.859375 C 4.566406 -10.785156 4.957031 -9.859375 5.3125 -9.078125 C 5.675781 -8.296875 5.96875 -7.582031 6.1875 -6.9375 Z M 6.1875 -6.9375 "/></g></g></g><g fill="#8c52ff" fill-opacity="1"><g transform="translate(203.52719, 213.973481)"><g><path d="M 6.1875 -6.9375 C 6.414062 -6.300781 6.582031 -5.707031 6.6875 -5.15625 C 6.789062 -4.613281 6.773438 -4.019531 6.640625 -3.375 C 6.503906 -2.726562 6.28125 -2.046875 5.96875 -1.328125 C 5.65625 -0.609375 5.300781 -0.00390625 4.90625 0.484375 C 3.957031 1.597656 3.113281 1.710938 2.375 0.828125 C 2.113281 0.640625 1.847656 0.613281 1.578125 0.75 C 1.316406 0.894531 1.050781 0.988281 0.78125 1.03125 C 0.101562 1.195312 -0.5 0.710938 -1.03125 -0.421875 C -1.65625 -2.085938 -2.46875 -4.066406 -3.46875 -6.359375 C -4.46875 -8.660156 -5.472656 -11.253906 -6.484375 -14.140625 C -8.992188 -21.109375 -10.65625 -27.835938 -11.46875 -34.328125 C -11.46875 -34.671875 -11.488281 -35.101562 -11.53125 -35.625 C -11.582031 -36.15625 -11.539062 -36.707031 -11.40625 -37.28125 C -11.144531 -38.71875 -10.226562 -39.695312 -8.65625 -40.21875 C -8.425781 -39.875 -8.128906 -39.640625 -7.765625 -39.515625 C -7.398438 -39.390625 -7 -39.273438 -6.5625 -39.171875 C -5.519531 -38.953125 -4.828125 -38.566406 -4.484375 -38.015625 C -2.410156 -29.835938 0.460938 -21.117188 4.140625 -11.859375 C 4.566406 -10.785156 4.957031 -9.859375 5.3125 -9.078125 C 5.675781 -8.296875 5.96875 -7.582031 6.1875 -6.9375 Z M 6.1875 -6.9375 "/></g></g></g><g fill="#8c52ff" fill-opacity="1"><g transform="translate(214.42692, 205.744518)"><g><path d="M 8.796875 -15.25 C 8.492188 -14.675781 8.164062 -14.160156 7.8125 -13.703125 C 7.46875 -13.242188 7.046875 -12.726562 6.546875 -12.15625 C 5.234375 -10.65625 4.25 -9.625 3.59375 -9.0625 C 3.851562 -8.863281 4.445312 -8.847656 5.375 -9.015625 C 5.875 -9.273438 6.3125 -9.707031 6.6875 -10.3125 C 7.0625 -10.925781 7.46875 -11.546875 7.90625 -12.171875 C 8.351562 -12.796875 8.84375 -13.328125 9.375 -13.765625 C 9.914062 -14.210938 10.601562 -14.394531 11.4375 -14.3125 C 11.96875 -14.03125 12.320312 -13.898438 12.5 -13.921875 C 12.675781 -13.941406 12.8125 -13.988281 12.90625 -14.0625 C 13 -14.132812 13.132812 -14.175781 13.3125 -14.1875 C 13.5 -14.207031 13.898438 -14.054688 14.515625 -13.734375 C 15.128906 -13.421875 15.421875 -12.90625 15.390625 -12.1875 C 15.359375 -11.476562 15.09375 -10.679688 14.59375 -9.796875 C 14.101562 -8.921875 13.4375 -8.007812 12.59375 -7.0625 C 11.757812 -6.113281 10.875 -5.234375 9.9375 -4.421875 C 7.832031 -2.566406 6.007812 -1.457031 4.46875 -1.09375 C 2.351562 -0.394531 0.414062 -0.703125 -1.34375 -2.015625 C -3.65625 -3.753906 -5.253906 -6.617188 -6.140625 -10.609375 C -6.566406 -12.460938 -6.710938 -14.6875 -6.578125 -17.28125 C -6.460938 -19.539062 -5.925781 -21.519531 -4.96875 -23.21875 C -3.832031 -25.1875 -2.347656 -26.828125 -0.515625 -28.140625 C 1.453125 -29.546875 3.421875 -29.710938 5.390625 -28.640625 C 6.410156 -28.066406 7.398438 -26.910156 8.359375 -25.171875 C 9.484375 -22.847656 10.046875 -21.023438 10.046875 -19.703125 C 10.035156 -18.398438 9.617188 -16.914062 8.796875 -15.25 Z M 2.21875 -19.484375 C 0.707031 -18.785156 0.242188 -17.273438 0.828125 -14.953125 C 0.953125 -14.316406 1.148438 -13.691406 1.421875 -13.078125 C 2.335938 -13.617188 2.875 -14.757812 3.03125 -16.5 C 3.0625 -17.175781 3 -17.796875 2.84375 -18.359375 C 2.695312 -18.921875 2.488281 -19.296875 2.21875 -19.484375 Z M 2.21875 -19.484375 "/></g></g></g><g fill="#8c52ff" fill-opacity="1"><g transform="translate(232.296551, 192.253494)"><g><path d="M -7.734375 -18.25 C -8.054688 -19.40625 -8.070312 -20.453125 -7.78125 -21.390625 C -7.5 -22.328125 -7.113281 -23.066406 -6.625 -23.609375 C -6.132812 -24.160156 -5.597656 -24.457031 -5.015625 -24.5 C -4.441406 -24.550781 -4.019531 -24.269531 -3.75 -23.65625 C -3.65625 -24.476562 -3.3125 -25.421875 -2.71875 -26.484375 C -2.125 -27.546875 -1.617188 -28.347656 -1.203125 -28.890625 C -0.796875 -29.441406 -0.40625 -29.859375 -0.03125 -30.140625 C 0.8125 -30.703125 1.378906 -30.429688 1.671875 -29.328125 C 2.140625 -29.566406 2.648438 -29.523438 3.203125 -29.203125 C 3.753906 -28.890625 4.171875 -28.394531 4.453125 -27.71875 C 4.742188 -27.039062 4.832031 -26.226562 4.71875 -25.28125 C 4.613281 -24.34375 4.195312 -23.441406 3.46875 -22.578125 C 2.75 -21.722656 2.363281 -20.722656 2.3125 -19.578125 C 2.257812 -18.441406 2.398438 -17.179688 2.734375 -15.796875 C 3.316406 -13.492188 4.523438 -10.507812 6.359375 -6.84375 C 7.046875 -5.519531 6.984375 -3.9375 6.171875 -2.09375 C 5.410156 -0.320312 4.351562 0.820312 3 1.34375 C 1.46875 1.957031 0.210938 1.453125 -0.765625 -0.171875 C -1.535156 -1.273438 -2.285156 -2.929688 -3.015625 -5.140625 C -3.753906 -7.359375 -4.300781 -9.039062 -4.65625 -10.1875 C -5.019531 -11.332031 -5.316406 -12.179688 -5.546875 -12.734375 Z M -7.734375 -18.25 "/></g></g></g><g clip-path="url(#id1)"><path fill="#000000" d="M 107.402344 91.953125 L 258.375 91.953125 L 258.375 104.3125 L 107.402344 104.3125 C 106.078125 104.3125 105 105.390625 105 106.714844 C 105 108.042969 106.078125 109.117188 107.402344 109.117188 L 258.375 109.117188 L 258.375 260.089844 C 258.375 261.417969 259.453125 262.492188 260.777344 262.492188 C 262.105469 262.492188 263.179688 261.417969 263.179688 260.089844 L 263.179688 109.117188 L 275.542969 109.117188 L 275.542969 260.089844 C 275.542969 261.417969 276.617188 262.492188 277.945312 262.492188 C 279.269531 262.492188 280.347656 261.417969 280.347656 260.089844 L 280.347656 109.117188 L 296.867188 109.117188 C 298.195312 109.117188 299.269531 108.042969 299.269531 106.714844 C 299.269531 105.390625 298.195312 104.3125 296.867188 104.3125 L 280.347656 104.3125 L 280.347656 91.953125 L 296.867188 91.953125 C 298.195312 91.953125 299.269531 90.875 299.269531 89.550781 C 299.269531 88.222656 298.195312 87.148438 296.867188 87.148438 L 280.347656 87.148438 L 280.347656 70.625 C 280.347656 69.300781 279.269531 68.226562 277.945312 68.226562 C 276.617188 68.226562 275.542969 69.300781 275.542969 70.625 L 275.542969 87.148438 L 263.179688 87.148438 L 263.179688 70.625 C 263.179688 69.300781 262.105469 68.226562 260.777344 68.226562 C 259.453125 68.226562 258.375 69.300781 258.375 70.625 L 258.375 87.148438 L 107.402344 87.148438 C 106.078125 87.148438 105 88.222656 105 89.550781 C 105 90.875 106.078125 91.953125 107.402344 91.953125 Z M 275.542969 91.953125 L 275.542969 104.3125 L 263.179688 104.3125 L 263.179688 91.953125 Z M 275.542969 91.953125 " fill-opacity="1" fill-rule="nonzero"/></g></svg>