<svg xmlns="http://www.w3.org/2000/svg" xmlns:xlink="http://www.w3.org/1999/xlink" width="500" zoomAndPan="magnify" viewBox="0 0 375 374.999991" height="500" preserveAspectRatio="xMidYMid meet" version="1.0"><defs><g/><clipPath id="id1"><path d="M 0 175.027344 L 122 175.027344 L 122 302.527344 L 0 302.527344 Z M 0 175.027344 " clip-rule="nonzero"/></clipPath></defs><g fill="#fbfbfb" fill-opacity="1"><g transform="translate(145.716062, 248.914751)"><g><path d="M 7.4375 -24.953125 C 8.457031 -21.773438 9.390625 -18.695312 10.234375 -15.71875 C 11.085938 -12.75 11.671875 -10.4375 11.984375 -8.78125 C 12.296875 -7.132812 12.394531 -5.914062 12.28125 -5.125 C 12.164062 -4.34375 11.9375 -3.691406 11.59375 -3.171875 C 11.257812 -2.660156 10.847656 -2.242188 10.359375 -1.921875 C 9.867188 -1.609375 9.375 -1.285156 8.875 -0.953125 C 5.851562 0.660156 3.554688 -0.644531 1.984375 -4.875 C 0.566406 -8.144531 -0.585938 -10.804688 -1.484375 -12.859375 C -2.390625 -14.921875 -3.132812 -16.625 -3.71875 -17.96875 C -4.300781 -19.320312 -4.78125 -20.445312 -5.15625 -21.34375 C -5.539062 -22.238281 -5.894531 -23.140625 -6.21875 -24.046875 C -6.550781 -24.953125 -6.898438 -25.992188 -7.265625 -27.171875 C -7.640625 -28.359375 -8.132812 -29.929688 -8.75 -31.890625 C -9.84375 -30.804688 -11.03125 -30.109375 -12.3125 -29.796875 C -14.175781 -29.335938 -15.742188 -30.21875 -17.015625 -32.4375 C -17.585938 -33.457031 -17.742188 -34.695312 -17.484375 -36.15625 C -17.347656 -36.90625 -17.160156 -37.75 -16.921875 -38.6875 C -16.410156 -40.632812 -14.726562 -43.578125 -11.875 -47.515625 C -8.894531 -51.554688 -6.003906 -54.585938 -3.203125 -56.609375 C -2.554688 -57.296875 -1.722656 -57.785156 -0.703125 -58.078125 C 0.304688 -58.367188 1.242188 -58.4375 2.109375 -58.28125 C 2.984375 -58.125 3.65625 -57.742188 4.125 -57.140625 C 4.601562 -56.546875 4.625 -55.707031 4.1875 -54.625 C 4 -54.070312 4.046875 -53.441406 4.328125 -52.734375 C 4.617188 -52.023438 4.914062 -51.269531 5.21875 -50.46875 C 5.519531 -49.675781 5.691406 -48.863281 5.734375 -48.03125 C 5.773438 -47.207031 5.4375 -46.445312 4.71875 -45.75 C 4.457031 -45.195312 3.988281 -44.585938 3.3125 -43.921875 C 2.632812 -43.265625 2.191406 -42.816406 1.984375 -42.578125 C 1.785156 -42.347656 1.71875 -42.164062 1.78125 -42.03125 C 2.476562 -39.894531 3.335938 -37.3125 4.359375 -34.28125 C 5.390625 -31.25 6.414062 -28.140625 7.4375 -24.953125 Z M -8.671875 -32.78125 C -8.734375 -32.726562 -8.757812 -32.691406 -8.75 -32.671875 C -8.738281 -32.660156 -8.703125 -32.679688 -8.640625 -32.734375 Z M -8.671875 -32.78125 "/></g></g></g><g fill="#fbfbfb" fill-opacity="1"><g transform="translate(169.843873, 230.698993)"><g><path d="M 22.171875 -24.8125 C 23.453125 -23.113281 24.773438 -21.796875 26.140625 -20.859375 C 26.921875 -19.828125 27.226562 -18.914062 27.0625 -18.125 C 26.90625 -17.332031 26.46875 -16.65625 25.75 -16.09375 C 25.039062 -15.539062 24.171875 -15.113281 23.140625 -14.8125 C 22.117188 -14.507812 21.15625 -14.367188 20.25 -14.390625 C 19.351562 -14.421875 18.722656 -14.507812 18.359375 -14.65625 C 17.992188 -14.800781 17.429688 -15.019531 16.671875 -15.3125 C 14.210938 -17.425781 12.710938 -18.878906 12.171875 -19.671875 C 11.628906 -20.460938 11.195312 -21.171875 10.875 -21.796875 C 9.894531 -19.753906 9.335938 -18.195312 9.203125 -17.125 C 8.921875 -15.15625 9.0625 -12.992188 9.625 -10.640625 C 10.425781 -9.046875 10.773438 -8.148438 10.671875 -7.953125 C 10.578125 -7.753906 10.410156 -7.539062 10.171875 -7.3125 C 9.941406 -7.09375 9.753906 -6.773438 9.609375 -6.359375 C 9.472656 -5.953125 9.320312 -5.585938 9.15625 -5.265625 C 9 -4.941406 8.84375 -4.613281 8.6875 -4.28125 C 8.34375 -3.476562 8.070312 -3.003906 7.875 -2.859375 C 6.488281 -0.910156 4.550781 0.148438 2.0625 0.328125 C 0.988281 0.378906 -0.0195312 0.175781 -0.96875 -0.28125 C -1.925781 -0.75 -2.632812 -1.488281 -3.09375 -2.5 C -6.1875 -9.46875 -8.851562 -16.9375 -11.09375 -24.90625 C -12.445312 -29.769531 -13.28125 -33.796875 -13.59375 -36.984375 C -13.65625 -37.742188 -13.742188 -38.53125 -13.859375 -39.34375 C -14.054688 -41.007812 -14.1875 -42.144531 -14.25 -42.75 C -15.1875 -43.34375 -15.722656 -44.078125 -15.859375 -44.953125 C -16.003906 -45.835938 -15.867188 -46.722656 -15.453125 -47.609375 C -15.035156 -48.503906 -14.429688 -49.347656 -13.640625 -50.140625 C -12.847656 -50.941406 -12.007812 -51.609375 -11.125 -52.140625 C -8.988281 -53.296875 -7.398438 -53.3125 -6.359375 -52.1875 C -6.109375 -51.457031 -5.847656 -50.5625 -5.578125 -49.5 C -5.304688 -48.445312 -5.03125 -47.390625 -4.75 -46.328125 C -4.46875 -45.265625 -4.210938 -44.265625 -3.984375 -43.328125 C -3.765625 -42.390625 -3.597656 -41.695312 -3.484375 -41.25 C -3.367188 -40.8125 -3.140625 -40.078125 -2.796875 -39.046875 C -2.460938 -38.023438 -2.085938 -36.925781 -1.671875 -35.75 C -1.265625 -34.570312 -0.890625 -33.492188 -0.546875 -32.515625 L 0.15625 -30.390625 C 0.363281 -29.835938 0.671875 -28.992188 1.078125 -27.859375 C 1.484375 -26.734375 2.03125 -25.375 2.71875 -23.78125 C 2.894531 -24.414062 2.953125 -25.050781 2.890625 -25.6875 C 2.835938 -26.332031 2.867188 -27.128906 2.984375 -28.078125 C 3.109375 -29.023438 3.394531 -30.082031 3.84375 -31.25 C 4.300781 -32.414062 4.945312 -33.4375 5.78125 -34.3125 C 7.59375 -36.25 9.988281 -37.015625 12.96875 -36.609375 C 15.226562 -36.273438 17.082031 -34.644531 18.53125 -31.71875 C 19.132812 -30.53125 19.707031 -29.289062 20.25 -28 C 20.800781 -26.71875 21.441406 -25.65625 22.171875 -24.8125 Z M 22.171875 -24.8125 "/></g></g></g><g fill="#fbfbfb" fill-opacity="1"><g transform="translate(198.249324, 209.253749)"><g><path d="M -8.765625 -25.609375 C -8.453125 -26.597656 -7.703125 -27.335938 -6.515625 -27.828125 C -6.304688 -27.941406 -6.109375 -28.070312 -5.921875 -28.21875 C -6.296875 -30.195312 -5.644531 -31.863281 -3.96875 -33.21875 C -3.539062 -33.601562 -2.972656 -34.160156 -2.265625 -34.890625 C -1.566406 -35.617188 -0.578125 -36.316406 0.703125 -36.984375 C 1.992188 -37.660156 3.253906 -38.082031 4.484375 -38.25 C 7.140625 -38.644531 9.394531 -38.03125 11.25 -36.40625 C 14.132812 -34.164062 16.34375 -31.003906 17.875 -26.921875 C 19.59375 -22.429688 20.019531 -18.128906 19.15625 -14.015625 C 18.769531 -12.109375 18.039062 -10.535156 16.96875 -9.296875 C 15.90625 -8.066406 14.867188 -7.046875 13.859375 -6.234375 C 12.859375 -5.421875 11.925781 -4.703125 11.0625 -4.078125 C 10.207031 -3.460938 9.316406 -2.929688 8.390625 -2.484375 C 6.390625 -1.523438 4.34375 -1.265625 2.25 -1.703125 C -0.144531 -2.148438 -2.394531 -3.972656 -4.5 -7.171875 C -6.414062 -9.960938 -7.785156 -13.191406 -8.609375 -16.859375 C -9.441406 -20.523438 -9.492188 -23.441406 -8.765625 -25.609375 Z M 6.984375 -22.328125 C 6.378906 -21.460938 5.710938 -20.785156 4.984375 -20.296875 C 4.898438 -19.679688 4.867188 -19.066406 4.890625 -18.453125 C 4.921875 -17.847656 4.835938 -17.207031 4.640625 -16.53125 C 4.441406 -15.863281 4.320312 -15.554688 4.28125 -15.609375 C 4.320312 -14.441406 4.472656 -13.3125 4.734375 -12.21875 C 5.003906 -11.132812 5.628906 -10.3125 6.609375 -9.75 C 7.984375 -10.570312 8.898438 -11.3125 9.359375 -11.96875 C 9.828125 -12.632812 10.117188 -13.4375 10.234375 -14.375 C 10.359375 -15.3125 10.289062 -16.257812 10.03125 -17.21875 C 9.5625 -19.03125 8.546875 -20.734375 6.984375 -22.328125 Z M 6.984375 -22.328125 "/></g></g></g><g fill="#fbfbfb" fill-opacity="1"><g transform="translate(223.434539, 190.239683)"><g><path d="M -9.09375 -25.953125 C -9.488281 -26.617188 -9.476562 -27.410156 -9.0625 -28.328125 C -8.65625 -29.242188 -8.019531 -30.023438 -7.15625 -30.671875 C -6.289062 -31.328125 -5.296875 -31.757812 -4.171875 -31.96875 C -3.054688 -32.1875 -1.992188 -31.929688 -0.984375 -31.203125 C -0.046875 -35.617188 1.75 -38.394531 4.40625 -39.53125 C 5.300781 -39.957031 6.296875 -40.007812 7.390625 -39.6875 C 7.847656 -42.488281 8.890625 -44.878906 10.515625 -46.859375 C 12.929688 -48.859375 15.15625 -49.640625 17.1875 -49.203125 C 17.476562 -49.160156 17.773438 -49.109375 18.078125 -49.046875 C 18.890625 -48.898438 19.382812 -48.769531 19.5625 -48.65625 C 20.8125 -48.1875 22.53125 -46.242188 24.71875 -42.828125 C 27.539062 -38.359375 29.921875 -33.539062 31.859375 -28.375 C 32.816406 -25.707031 33.046875 -24.132812 32.546875 -23.65625 C 32.285156 -23.363281 31.988281 -23.144531 31.65625 -23 C 31.332031 -22.851562 31.0625 -22.707031 30.84375 -22.5625 C 30.625 -22.425781 30.644531 -22.148438 30.90625 -21.734375 C 30.894531 -20.429688 30.226562 -19.285156 28.90625 -18.296875 C 27.632812 -17.328125 26.242188 -16.898438 24.734375 -17.015625 C 23.117188 -17.097656 22.035156 -17.820312 21.484375 -19.1875 C 20.929688 -20.5625 20.390625 -21.992188 19.859375 -23.484375 C 19.335938 -24.972656 18.816406 -26.523438 18.296875 -28.140625 C 17.367188 -30.972656 16.453125 -33.957031 15.546875 -37.09375 C 15.441406 -35.8125 15.617188 -33.671875 16.078125 -30.671875 C 16.535156 -27.671875 16.773438 -25.851562 16.796875 -25.21875 C 17.078125 -23.71875 17.28125 -22.523438 17.40625 -21.640625 C 17.53125 -20.753906 17.429688 -19.898438 17.109375 -19.078125 C 16.785156 -18.253906 16.410156 -17.609375 15.984375 -17.140625 C 15.566406 -16.671875 15.113281 -16.296875 14.625 -16.015625 C 13.4375 -15.378906 12.34375 -15.257812 11.34375 -15.65625 C 11.050781 -15.84375 10.757812 -16.023438 10.46875 -16.203125 C 10.1875 -16.390625 9.84375 -16.679688 9.4375 -17.078125 C 8.601562 -18.003906 7.507812 -19.722656 6.15625 -22.234375 L 6.171875 -22.015625 C 6.265625 -22.691406 6.320312 -22.882812 6.34375 -22.59375 C 6.4375 -19.800781 6.546875 -18.050781 6.671875 -17.34375 C 6.796875 -16.644531 6.953125 -15.867188 7.140625 -15.015625 C 7.328125 -14.171875 7.535156 -13.195312 7.765625 -12.09375 C 7.992188 -10.988281 8.238281 -10.03125 8.5 -9.21875 C 8.757812 -8.414062 8.96875 -7.585938 9.125 -6.734375 C 9.5625 -3.140625 7.789062 -0.21875 3.8125 2.03125 C 2.957031 2.519531 2.15625 2.832031 1.40625 2.96875 C 0.65625 3.101562 0.125 2.863281 -0.1875 2.25 C -0.90625 0.78125 -1.921875 -1.796875 -3.234375 -5.484375 C -5.859375 -12.753906 -7.632812 -17.375 -8.5625 -19.34375 C -8.78125 -20.09375 -9.023438 -20.835938 -9.296875 -21.578125 C -9.578125 -22.316406 -9.796875 -22.984375 -9.953125 -23.578125 C -10.359375 -24.921875 -10.070312 -25.710938 -9.09375 -25.953125 Z M 16.546875 -26.6875 L 16.625 -26.578125 C 16.582031 -26.742188 16.554688 -26.78125 16.546875 -26.6875 Z M 16.546875 -26.6875 "/></g></g></g><g fill="#fbfbfb" fill-opacity="1"><g transform="translate(260.299145, 162.408035)"><g><path d="M 6.4375 -37.25 L 6.671875 -37.34375 C 6.742188 -37.394531 6.789062 -37.40625 6.8125 -37.375 C 7.40625 -38.320312 8.269531 -38.59375 9.40625 -38.1875 C 10.175781 -37.914062 11.082031 -37.296875 12.125 -36.328125 C 13.351562 -34.835938 14.800781 -32.582031 16.46875 -29.5625 C 19.894531 -23.5 21.972656 -19.914062 22.703125 -18.8125 C 23.617188 -17.738281 23.507812 -16.445312 22.375 -14.9375 C 21.414062 -13.601562 20.15625 -12.675781 18.59375 -12.15625 C 16.9375 -11.613281 15.875 -11.890625 15.40625 -12.984375 C 15.507812 -12.316406 15.507812 -11.78125 15.40625 -11.375 C 15.3125 -10.96875 15.023438 -10.296875 14.546875 -9.359375 C 14.078125 -8.429688 13.238281 -7.320312 12.03125 -6.03125 C 10.832031 -4.75 9.503906 -3.644531 8.046875 -2.71875 C 6.585938 -1.789062 5.078125 -1.175781 3.515625 -0.875 C 1.953125 -0.582031 0.535156 -0.890625 -0.734375 -1.796875 C -3.210938 -3.535156 -5.332031 -6.535156 -7.09375 -10.796875 C -8.207031 -13.617188 -8.613281 -16.554688 -8.3125 -19.609375 C -7.9375 -23.109375 -7.039062 -26.453125 -5.625 -29.640625 C -4.539062 -32.003906 -3.222656 -33.929688 -1.671875 -35.421875 C -1.140625 -35.910156 -0.617188 -36.269531 -0.109375 -36.5 C 0.390625 -36.726562 0.921875 -36.984375 1.484375 -37.265625 C 2.046875 -37.546875 2.625 -37.757812 3.21875 -37.90625 C 4.738281 -38.300781 5.8125 -38.082031 6.4375 -37.25 Z M 7.171875 -17.78125 C 7.054688 -18.394531 6.816406 -19.09375 6.453125 -19.875 C 6.085938 -20.664062 5.734375 -21.554688 5.390625 -22.546875 C 3.597656 -19.535156 2.585938 -16.738281 2.359375 -14.15625 C 2.140625 -11.332031 3.125 -10.238281 5.3125 -10.875 C 7.0625 -11.59375 7.953125 -12.640625 7.984375 -14.015625 C 7.984375 -14.617188 7.875 -15.296875 7.65625 -16.046875 C 7.445312 -16.796875 7.273438 -17.59375 7.140625 -18.4375 C 7.160156 -18.207031 7.171875 -17.988281 7.171875 -17.78125 Z M 7.171875 -17.78125 "/></g></g></g><g fill="#fbfbfb" fill-opacity="1"><g transform="translate(286.061125, 142.95853)"><g><path d="M 18.28125 -11.984375 C 17.800781 -10.015625 16.90625 -8.117188 15.59375 -6.296875 C 14.28125 -4.472656 12.765625 -2.890625 11.046875 -1.546875 C 9.335938 -0.210938 7.5625 0.796875 5.71875 1.484375 C 3.875 2.171875 2.160156 2.359375 0.578125 2.046875 C -1.265625 1.734375 -2.441406 0.910156 -2.953125 -0.421875 C -3.140625 -0.984375 -3.125 -1.546875 -2.90625 -2.109375 C -2.695312 -2.671875 -2.257812 -3.101562 -1.59375 -3.40625 C -1.175781 -3.65625 -0.96875 -3.96875 -0.96875 -4.34375 C -0.976562 -4.726562 -1.03125 -5.117188 -1.125 -5.515625 C -1.226562 -5.910156 -1.304688 -6.304688 -1.359375 -6.703125 C -1.410156 -7.097656 -1.257812 -7.429688 -0.90625 -7.703125 C 4.851562 -11.796875 7.410156 -14.503906 6.765625 -15.828125 C 6.117188 -15.890625 5.421875 -15.835938 4.671875 -15.671875 C 3.921875 -15.503906 3.15625 -15.328125 2.375 -15.140625 C 0.488281 -14.722656 -0.988281 -14.71875 -2.0625 -15.125 C -2.914062 -14.988281 -3.960938 -15.410156 -5.203125 -16.390625 C -5.773438 -16.804688 -6.273438 -17.300781 -6.703125 -17.875 C -7.140625 -18.445312 -7.445312 -19.050781 -7.625 -19.6875 C -8.644531 -20.851562 -8.914062 -22.8125 -8.4375 -25.5625 C -8.300781 -26.320312 -8.078125 -27.191406 -7.765625 -28.171875 C -7.453125 -29.160156 -6.789062 -30.390625 -5.78125 -31.859375 C -4.769531 -33.328125 -3.675781 -34.664062 -2.5 -35.875 C -1.332031 -37.082031 -0.191406 -38.054688 0.921875 -38.796875 C 2.046875 -39.546875 3.007812 -39.875 3.8125 -39.78125 C 4.625 -39.6875 5.414062 -39.40625 6.1875 -38.9375 C 6.96875 -38.46875 7.554688 -37.878906 7.953125 -37.171875 C 8.773438 -35.523438 8.335938 -33.632812 6.640625 -31.5 C 4.273438 -29.113281 3.257812 -27.789062 3.59375 -27.53125 C 3.632812 -27.46875 3.578125 -27.304688 3.421875 -27.046875 C 7.171875 -27.210938 10.148438 -26.84375 12.359375 -25.9375 C 15.367188 -24.675781 17.441406 -22.316406 18.578125 -18.859375 C 19.421875 -18.085938 19.46875 -16.363281 18.71875 -13.6875 C 18.539062 -13.050781 18.394531 -12.484375 18.28125 -11.984375 Z M 18.28125 -11.984375 "/></g></g></g><g fill="#fbfbfb" fill-opacity="1"><g transform="translate(197.244164, 284.067733)"><g><path d="M -7.609375 -49.359375 C -6.628906 -48.734375 -6.015625 -48.289062 -5.765625 -48.03125 C -5.242188 -47.46875 -5.082031 -46.785156 -5.28125 -45.984375 C -5.25 -45.953125 -5.238281 -45.875 -5.25 -45.75 C -3.820312 -44.46875 -2.691406 -43.109375 -1.859375 -41.671875 C -1.035156 -40.234375 -0.296875 -38.8125 0.359375 -37.40625 C -0.128906 -41.65625 -0.378906 -44.859375 -0.390625 -47.015625 C -0.429688 -51.460938 -0.00390625 -54.988281 0.890625 -57.59375 C 1.242188 -58.40625 1.796875 -59.226562 2.546875 -60.0625 C 3.296875 -60.90625 4.117188 -61.566406 5.015625 -62.046875 C 5.910156 -62.523438 6.816406 -62.703125 7.734375 -62.578125 C 8.648438 -62.460938 9.460938 -61.875 10.171875 -60.8125 C 13.992188 -53.882812 17.429688 -47.332031 20.484375 -41.15625 C 23.535156 -34.976562 26.09375 -28.820312 28.15625 -22.6875 L 28.21875 -22.609375 L 28.171875 -22.5625 C 28.660156 -21.125 28.316406 -19.578125 27.140625 -17.921875 C 25.972656 -16.335938 24.65625 -15.289062 23.1875 -14.78125 C 21.4375 -14.113281 20.195312 -14.390625 19.46875 -15.609375 L 18.6875 -16.75 L 18.609375 -16.84375 C 18.148438 -17.707031 17.828125 -18.28125 17.640625 -18.5625 C 17.453125 -18.84375 17.328125 -19.0625 17.265625 -19.21875 C 16.703125 -20.101562 16.253906 -20.984375 15.921875 -21.859375 C 15.585938 -22.742188 15.296875 -23.445312 15.046875 -23.96875 C 14.796875 -24.488281 14.566406 -24.984375 14.359375 -25.453125 C 14.160156 -25.929688 13.988281 -26.289062 13.84375 -26.53125 C 13.894531 -23.957031 13.796875 -22.296875 13.546875 -21.546875 C 12.953125 -19.679688 11.773438 -18.132812 10.015625 -16.90625 C 8.910156 -16.1875 8.117188 -15.972656 7.640625 -16.265625 C 6.640625 -16.921875 6.019531 -17.28125 5.78125 -17.34375 C 5.394531 -17.457031 4.90625 -17.765625 4.3125 -18.265625 C 6.257812 -13.960938 7.414062 -10.738281 7.78125 -8.59375 C 7.914062 -7.75 8.003906 -6.960938 8.046875 -6.234375 C 8.398438 -4.828125 7.929688 -3.3125 6.640625 -1.6875 C 5.460938 -0.132812 4 0.914062 2.25 1.46875 C 0.5 2.082031 -0.773438 1.785156 -1.578125 0.578125 C -2.390625 -0.617188 -3.253906 -2.238281 -4.171875 -4.28125 C -5.085938 -6.332031 -6.007812 -8.539062 -6.9375 -10.90625 C -9.976562 -18.320312 -11.851562 -23.21875 -12.5625 -25.59375 C -13.28125 -27.976562 -13.796875 -29.878906 -14.109375 -31.296875 C -14.816406 -34.640625 -15.144531 -37.210938 -15.09375 -39.015625 C -15.632812 -41.773438 -14.90625 -44.238281 -12.90625 -46.40625 C -11.351562 -48.132812 -9.585938 -49.117188 -7.609375 -49.359375 Z M -7.609375 -49.359375 "/></g></g></g><g fill="#fbfbfb" fill-opacity="1"><g transform="translate(230.455965, 258.993841)"><g><path d="M -9.671875 -25.8125 C -9.429688 -27.351562 -8.8125 -28.613281 -7.8125 -29.59375 C -6.820312 -30.570312 -5.757812 -31.191406 -4.625 -31.453125 C -3.488281 -31.710938 -2.394531 -31.566406 -1.34375 -31.015625 C -0.289062 -30.472656 0.382812 -29.460938 0.6875 -27.984375 C 0.8125 -25.554688 1.253906 -23.171875 2.015625 -20.828125 C 2.773438 -18.484375 3.59375 -16.164062 4.46875 -13.875 C 6.019531 -17.957031 6.394531 -22.59375 5.59375 -27.78125 C 5.34375 -29.300781 5.132812 -30.875 4.96875 -32.5 L 4.671875 -34.40625 L 4.375 -37.796875 C 4.101562 -38.546875 4.144531 -39.191406 4.5 -39.734375 C 4.851562 -40.273438 5.304688 -40.753906 5.859375 -41.171875 C 6.410156 -41.585938 6.976562 -42.007812 7.5625 -42.4375 C 8.15625 -42.863281 8.570312 -43.414062 8.8125 -44.09375 C 9.050781 -44.78125 9.53125 -45.328125 10.25 -45.734375 C 10.976562 -46.148438 11.734375 -46.382812 12.515625 -46.4375 C 13.304688 -46.488281 14.023438 -46.363281 14.671875 -46.0625 C 15.328125 -45.769531 15.726562 -45.300781 15.875 -44.65625 C 16.695312 -40.757812 18.898438 -34.003906 22.484375 -24.390625 C 23.273438 -22.210938 23.878906 -20.347656 24.296875 -18.796875 C 24.242188 -17.203125 23.742188 -15.769531 22.796875 -14.5 C 21.847656 -13.226562 20.78125 -12.253906 19.59375 -11.578125 C 18.40625 -10.910156 17.265625 -10.628906 16.171875 -10.734375 C 15.085938 -10.847656 14.382812 -11.488281 14.0625 -12.65625 C 13.726562 -11.238281 13.304688 -9.859375 12.796875 -8.515625 C 12.296875 -7.179688 11.4375 -5.90625 10.21875 -4.6875 C 9.007812 -3.476562 7.664062 -2.550781 6.1875 -1.90625 C 4.707031 -1.269531 3.195312 -1.050781 1.65625 -1.25 C 0.125 -1.445312 -1.222656 -2.242188 -2.390625 -3.640625 C -6.390625 -8.566406 -8.816406 -15.957031 -9.671875 -25.8125 Z M -9.671875 -25.8125 "/></g></g></g><g fill="#fbfbfb" fill-opacity="1"><g transform="translate(259.582376, 237.004294)"><g><path d="M 8.03125 -9 C 8.320312 -8.164062 8.535156 -7.394531 8.671875 -6.6875 C 8.816406 -5.988281 8.800781 -5.222656 8.625 -4.390625 C 8.445312 -3.554688 8.15625 -2.671875 7.75 -1.734375 C 7.34375 -0.804688 6.882812 -0.015625 6.375 0.640625 C 5.125 2.066406 4.023438 2.207031 3.078125 1.0625 C 2.734375 0.820312 2.390625 0.789062 2.046875 0.96875 C 1.710938 1.144531 1.367188 1.269531 1.015625 1.34375 C 0.117188 1.5625 -0.664062 0.921875 -1.34375 -0.578125 C -2.164062 -2.722656 -3.21875 -5.285156 -4.5 -8.265625 C -5.789062 -11.242188 -7.09375 -14.601562 -8.40625 -18.34375 C -11.644531 -27.363281 -13.796875 -36.078125 -14.859375 -44.484375 C -14.847656 -44.929688 -14.875 -45.492188 -14.9375 -46.171875 C -15 -46.859375 -14.953125 -47.566406 -14.796875 -48.296875 C -14.460938 -50.171875 -13.265625 -51.453125 -11.203125 -52.140625 C -10.929688 -51.691406 -10.550781 -51.382812 -10.0625 -51.21875 C -9.582031 -51.0625 -9.070312 -50.914062 -8.53125 -50.78125 C -7.15625 -50.5 -6.25 -50 -5.8125 -49.28125 C -3.125 -38.664062 0.601562 -27.359375 5.375 -15.359375 C 5.925781 -13.960938 6.429688 -12.757812 6.890625 -11.75 C 7.359375 -10.75 7.738281 -9.832031 8.03125 -9 Z M 8.03125 -9 "/></g></g></g><g fill="#fbfbfb" fill-opacity="1"><g transform="translate(273.713004, 226.336103)"><g><path d="M 8.03125 -9 C 8.320312 -8.164062 8.535156 -7.394531 8.671875 -6.6875 C 8.816406 -5.988281 8.800781 -5.222656 8.625 -4.390625 C 8.445312 -3.554688 8.15625 -2.671875 7.75 -1.734375 C 7.34375 -0.804688 6.882812 -0.015625 6.375 0.640625 C 5.125 2.066406 4.023438 2.207031 3.078125 1.0625 C 2.734375 0.820312 2.390625 0.789062 2.046875 0.96875 C 1.710938 1.144531 1.367188 1.269531 1.015625 1.34375 C 0.117188 1.5625 -0.664062 0.921875 -1.34375 -0.578125 C -2.164062 -2.722656 -3.21875 -5.285156 -4.5 -8.265625 C -5.789062 -11.242188 -7.09375 -14.601562 -8.40625 -18.34375 C -11.644531 -27.363281 -13.796875 -36.078125 -14.859375 -44.484375 C -14.847656 -44.929688 -14.875 -45.492188 -14.9375 -46.171875 C -15 -46.859375 -14.953125 -47.566406 -14.796875 -48.296875 C -14.460938 -50.171875 -13.265625 -51.453125 -11.203125 -52.140625 C -10.929688 -51.691406 -10.550781 -51.382812 -10.0625 -51.21875 C -9.582031 -51.0625 -9.070312 -50.914062 -8.53125 -50.78125 C -7.15625 -50.5 -6.25 -50 -5.8125 -49.28125 C -3.125 -38.664062 0.601562 -27.359375 5.375 -15.359375 C 5.925781 -13.960938 6.429688 -12.757812 6.890625 -11.75 C 7.359375 -10.75 7.738281 -9.832031 8.03125 -9 Z M 8.03125 -9 "/></g></g></g><g fill="#fbfbfb" fill-opacity="1"><g transform="translate(287.843632, 215.667911)"><g><path d="M 11.390625 -19.78125 C 11.003906 -19.03125 10.582031 -18.359375 10.125 -17.765625 C 9.675781 -17.171875 9.128906 -16.5 8.484375 -15.75 C 6.773438 -13.820312 5.5 -12.484375 4.65625 -11.734375 C 4.988281 -11.492188 5.753906 -11.476562 6.953125 -11.6875 C 7.609375 -12.007812 8.175781 -12.566406 8.65625 -13.359375 C 9.144531 -14.160156 9.671875 -14.960938 10.234375 -15.765625 C 10.804688 -16.566406 11.441406 -17.257812 12.140625 -17.84375 C 12.847656 -18.425781 13.738281 -18.675781 14.8125 -18.59375 C 15.5 -18.195312 15.957031 -18.007812 16.1875 -18.03125 C 16.425781 -18.050781 16.609375 -18.109375 16.734375 -18.203125 C 16.859375 -18.304688 17.035156 -18.367188 17.265625 -18.390625 C 17.503906 -18.421875 18.019531 -18.226562 18.8125 -17.8125 C 19.601562 -17.40625 19.984375 -16.738281 19.953125 -15.8125 C 19.921875 -14.882812 19.582031 -13.847656 18.9375 -12.703125 C 18.289062 -11.566406 17.421875 -10.382812 16.328125 -9.15625 C 15.234375 -7.925781 14.085938 -6.785156 12.890625 -5.734375 C 10.171875 -3.335938 7.800781 -1.898438 5.78125 -1.421875 C 3.050781 -0.523438 0.546875 -0.921875 -1.734375 -2.609375 C -4.753906 -4.859375 -6.835938 -8.570312 -7.984375 -13.75 C -8.523438 -16.15625 -8.707031 -19.039062 -8.53125 -22.40625 C -8.375 -25.320312 -7.671875 -27.890625 -6.421875 -30.109375 C -4.972656 -32.648438 -3.054688 -34.773438 -0.671875 -36.484375 C 1.878906 -38.296875 4.4375 -38.507812 7 -37.125 C 8.320312 -36.375 9.597656 -34.878906 10.828125 -32.640625 C 12.304688 -29.617188 13.039062 -27.25 13.03125 -25.53125 C 12.988281 -23.851562 12.441406 -21.9375 11.390625 -19.78125 Z M 2.875 -25.28125 C 0.914062 -24.34375 0.316406 -22.375 1.078125 -19.375 C 1.242188 -18.539062 1.503906 -17.734375 1.859375 -16.953125 C 3.046875 -17.648438 3.734375 -19.128906 3.921875 -21.390625 C 3.960938 -22.265625 3.882812 -23.066406 3.6875 -23.796875 C 3.488281 -24.535156 3.21875 -25.03125 2.875 -25.28125 Z M 2.875 -25.28125 "/></g></g></g><g fill="#fbfbfb" fill-opacity="1"><g transform="translate(311.01018, 198.177878)"><g><path d="M -10.03125 -23.6875 C -10.445312 -25.175781 -10.46875 -26.519531 -10.09375 -27.71875 C -9.726562 -28.925781 -9.222656 -29.890625 -8.578125 -30.609375 C -7.929688 -31.328125 -7.238281 -31.710938 -6.5 -31.765625 C -5.769531 -31.816406 -5.226562 -31.445312 -4.875 -30.65625 C -4.726562 -31.71875 -4.269531 -32.941406 -3.5 -34.328125 C -2.738281 -35.722656 -2.09375 -36.769531 -1.5625 -37.46875 C -1.03125 -38.164062 -0.523438 -38.695312 -0.046875 -39.0625 C 1.066406 -39.789062 1.8125 -39.441406 2.1875 -38.015625 C 2.78125 -38.328125 3.4375 -38.273438 4.15625 -37.859375 C 4.882812 -37.453125 5.425781 -36.804688 5.78125 -35.921875 C 6.144531 -35.035156 6.257812 -33.984375 6.125 -32.765625 C 5.988281 -31.554688 5.445312 -30.390625 4.5 -29.265625 C 3.550781 -28.148438 3.046875 -26.851562 2.984375 -25.375 C 2.921875 -23.90625 3.109375 -22.273438 3.546875 -20.484375 C 4.304688 -17.492188 5.875 -13.625 8.25 -8.875 C 9.125 -7.164062 9.035156 -5.109375 7.984375 -2.703125 C 7.003906 -0.410156 5.640625 1.070312 3.890625 1.75 C 1.898438 2.539062 0.269531 1.878906 -1 -0.234375 C -1.976562 -1.648438 -2.945312 -3.789062 -3.90625 -6.65625 C -4.863281 -9.53125 -5.578125 -11.710938 -6.046875 -13.203125 C -6.515625 -14.691406 -6.898438 -15.800781 -7.203125 -16.53125 Z M -10.03125 -23.6875 "/></g></g></g><g clip-path="url(#id1)"><path fill="#fbfbfb" d="M 120.011719 239.488281 C 96.660156 247.683594 89.941406 299.945312 89.875 300.472656 C 89.734375 301.625 88.773438 302.503906 87.609375 302.542969 C 86.457031 302.582031 85.425781 301.765625 85.210938 300.625 C 85.171875 300.417969 81.164062 279.816406 70.582031 259.535156 C 56.636719 232.800781 38.484375 219.25 16.632812 219.25 C -10.761719 219.25 -31.988281 241.304688 -44.976562 259.808594 C -59.25 280.148438 -66.988281 300.796875 -67.0625 301.003906 C -67.410156 301.941406 -68.304688 302.542969 -69.28125 302.542969 C -69.40625 302.542969 -69.535156 302.53125 -69.664062 302.511719 C -70.777344 302.328125 -71.609375 301.382812 -71.644531 300.253906 C -73.277344 245.597656 -104.464844 179.414062 -104.78125 178.753906 C -105.339844 177.574219 -104.839844 176.167969 -103.660156 175.609375 C -102.480469 175.050781 -101.070312 175.550781 -100.511719 176.726562 C -100.210938 177.359375 -72.269531 236.628906 -67.53125 289.964844 C -63.839844 281.875 -57.601562 269.589844 -48.90625 257.183594 C -40.28125 244.882812 -31.035156 235.0625 -21.417969 228.003906 C -9.242188 219.0625 3.5625 214.527344 16.632812 214.527344 C 40.082031 214.527344 60.203125 229.371094 74.824219 257.445312 C 80.882812 269.082031 84.800781 280.605469 87.117188 288.683594 C 90.597656 271.925781 99.410156 241.714844 118.445312 235.035156 C 119.671875 234.601562 121.023438 235.25 121.457031 236.476562 C 121.890625 237.707031 121.242188 239.054688 120.011719 239.488281 Z M 120.011719 239.488281 " fill-opacity="1" fill-rule="nonzero"/></g></svg>