<svg xmlns="http://www.w3.org/2000/svg" xmlns:xlink="http://www.w3.org/1999/xlink" width="500" zoomAndPan="magnify" viewBox="0 0 375 374.999991" height="500" preserveAspectRatio="xMidYMid meet" version="1.0"><defs><g/><clipPath id="id1"><path d="M 50 172.027344 L 199.800781 172.027344 L 199.800781 256.027344 L 50 256.027344 Z M 50 172.027344 " clip-rule="nonzero"/></clipPath></defs><g fill="#5e17eb" fill-opacity="1"><g transform="translate(206.894314, 211.750926)"><g><path d="M 4.4375 -14.890625 C 5.050781 -12.992188 5.609375 -11.15625 6.109375 -9.375 C 6.609375 -7.59375 6.953125 -6.210938 7.140625 -5.234375 C 7.328125 -4.253906 7.390625 -3.523438 7.328125 -3.046875 C 7.265625 -2.578125 7.128906 -2.191406 6.921875 -1.890625 C 6.722656 -1.585938 6.472656 -1.335938 6.171875 -1.140625 C 5.878906 -0.953125 5.582031 -0.757812 5.28125 -0.5625 C 3.488281 0.394531 2.117188 -0.382812 1.171875 -2.90625 C 0.335938 -4.851562 -0.347656 -6.441406 -0.890625 -7.671875 C -1.441406 -8.910156 -1.890625 -9.929688 -2.234375 -10.734375 C -2.578125 -11.535156 -2.859375 -12.203125 -3.078125 -12.734375 C -3.304688 -13.265625 -3.519531 -13.796875 -3.71875 -14.328125 C -3.925781 -14.867188 -4.132812 -15.492188 -4.34375 -16.203125 C -4.550781 -16.921875 -4.835938 -17.851562 -5.203125 -19 C -5.878906 -18.363281 -6.597656 -17.957031 -7.359375 -17.78125 C -8.460938 -17.507812 -9.390625 -18.03125 -10.140625 -19.34375 C -10.484375 -19.957031 -10.578125 -20.695312 -10.421875 -21.5625 C -10.347656 -22 -10.238281 -22.503906 -10.09375 -23.078125 C -9.800781 -24.234375 -8.796875 -25.984375 -7.078125 -28.328125 C -5.296875 -30.742188 -3.566406 -32.554688 -1.890625 -33.765625 C -1.515625 -34.171875 -1.023438 -34.457031 -0.421875 -34.625 C 0.179688 -34.789062 0.738281 -34.832031 1.25 -34.75 C 1.769531 -34.664062 2.171875 -34.441406 2.453125 -34.078125 C 2.742188 -33.722656 2.757812 -33.222656 2.5 -32.578125 C 2.375 -32.253906 2.398438 -31.875 2.578125 -31.4375 C 2.753906 -31.007812 2.929688 -30.554688 3.109375 -30.078125 C 3.296875 -29.609375 3.398438 -29.128906 3.421875 -28.640625 C 3.453125 -28.148438 3.25 -27.695312 2.8125 -27.28125 C 2.664062 -26.96875 2.390625 -26.609375 1.984375 -26.203125 C 1.578125 -25.804688 1.3125 -25.535156 1.1875 -25.390625 C 1.0625 -25.253906 1.019531 -25.144531 1.0625 -25.0625 C 1.476562 -23.78125 1.992188 -22.238281 2.609375 -20.4375 C 3.222656 -18.644531 3.832031 -16.796875 4.4375 -14.890625 Z M -5.171875 -19.546875 C -5.210938 -19.515625 -5.226562 -19.492188 -5.21875 -19.484375 C -5.207031 -19.472656 -5.179688 -19.484375 -5.140625 -19.515625 Z M -5.171875 -19.546875 "/></g></g></g><g fill="#5e17eb" fill-opacity="1"><g transform="translate(221.284604, 200.886697)"><g><path d="M 13.21875 -14.796875 C 13.976562 -13.785156 14.769531 -13 15.59375 -12.4375 C 16.039062 -11.832031 16.21875 -11.289062 16.125 -10.8125 C 16.039062 -10.332031 15.785156 -9.925781 15.359375 -9.59375 C 14.941406 -9.269531 14.425781 -9.015625 13.8125 -8.828125 C 13.195312 -8.648438 12.617188 -8.566406 12.078125 -8.578125 C 11.546875 -8.597656 11.164062 -8.648438 10.9375 -8.734375 C 10.71875 -8.828125 10.382812 -8.957031 9.9375 -9.125 C 8.476562 -10.394531 7.582031 -11.265625 7.25 -11.734375 C 6.914062 -12.203125 6.660156 -12.617188 6.484375 -12.984375 C 5.898438 -11.773438 5.566406 -10.847656 5.484375 -10.203125 C 5.304688 -9.035156 5.390625 -7.75 5.734375 -6.34375 C 6.222656 -5.394531 6.4375 -4.859375 6.375 -4.734375 C 6.3125 -4.617188 6.207031 -4.492188 6.0625 -4.359375 C 5.925781 -4.222656 5.816406 -4.03125 5.734375 -3.78125 C 5.648438 -3.539062 5.5625 -3.320312 5.46875 -3.125 C 5.375 -2.9375 5.28125 -2.75 5.1875 -2.5625 C 4.976562 -2.082031 4.816406 -1.796875 4.703125 -1.703125 C 3.878906 -0.523438 2.71875 0.101562 1.21875 0.1875 C 0.59375 0.21875 -0.00390625 0.0976562 -0.578125 -0.171875 C -1.148438 -0.441406 -1.578125 -0.878906 -1.859375 -1.484375 C -3.703125 -5.640625 -5.289062 -10.09375 -6.625 -14.84375 C -7.4375 -17.75 -7.925781 -20.148438 -8.09375 -22.046875 C -8.132812 -22.503906 -8.191406 -22.976562 -8.265625 -23.46875 C -8.378906 -24.457031 -8.457031 -25.132812 -8.5 -25.5 C -9.0625 -25.851562 -9.378906 -26.289062 -9.453125 -26.8125 C -9.535156 -27.332031 -9.453125 -27.859375 -9.203125 -28.390625 C -8.960938 -28.921875 -8.601562 -29.425781 -8.125 -29.90625 C -7.65625 -30.382812 -7.160156 -30.78125 -6.640625 -31.09375 C -5.359375 -31.78125 -4.40625 -31.789062 -3.78125 -31.125 C -3.644531 -30.6875 -3.492188 -30.148438 -3.328125 -29.515625 C -3.160156 -28.890625 -2.992188 -28.257812 -2.828125 -27.625 C -2.660156 -26.988281 -2.507812 -26.390625 -2.375 -25.828125 C -2.238281 -25.273438 -2.140625 -24.863281 -2.078125 -24.59375 C -2.015625 -24.332031 -1.878906 -23.894531 -1.671875 -23.28125 C -1.460938 -22.675781 -1.238281 -22.019531 -1 -21.3125 C -0.757812 -20.613281 -0.535156 -19.96875 -0.328125 -19.375 L 0.078125 -18.125 C 0.210938 -17.789062 0.398438 -17.285156 0.640625 -16.609375 C 0.878906 -15.941406 1.207031 -15.132812 1.625 -14.1875 C 1.726562 -14.570312 1.765625 -14.953125 1.734375 -15.328125 C 1.703125 -15.703125 1.722656 -16.171875 1.796875 -16.734375 C 1.867188 -17.296875 2.035156 -17.925781 2.296875 -18.625 C 2.566406 -19.320312 2.953125 -19.941406 3.453125 -20.484375 C 4.535156 -21.628906 5.960938 -22.070312 7.734375 -21.8125 C 9.085938 -21.632812 10.195312 -20.671875 11.0625 -18.921875 C 11.414062 -18.203125 11.75 -17.457031 12.0625 -16.6875 C 12.382812 -15.925781 12.769531 -15.296875 13.21875 -14.796875 Z M 13.21875 -14.796875 "/></g></g></g><g fill="#5e17eb" fill-opacity="1"><g transform="translate(238.226156, 188.096343)"><g><path d="M -5.234375 -15.28125 C -5.046875 -15.863281 -4.597656 -16.300781 -3.890625 -16.59375 C -3.765625 -16.65625 -3.644531 -16.734375 -3.53125 -16.828125 C -3.75 -18.003906 -3.359375 -19.003906 -2.359375 -19.828125 C -2.097656 -20.046875 -1.757812 -20.375 -1.34375 -20.8125 C -0.925781 -21.25 -0.335938 -21.664062 0.421875 -22.0625 C 1.179688 -22.457031 1.929688 -22.707031 2.671875 -22.8125 C 4.253906 -23.050781 5.59375 -22.679688 6.6875 -21.703125 C 8.4375 -20.367188 9.757812 -18.484375 10.65625 -16.046875 C 11.6875 -13.378906 11.941406 -10.816406 11.421875 -8.359375 C 11.191406 -7.234375 10.753906 -6.296875 10.109375 -5.546875 C 9.472656 -4.804688 8.859375 -4.191406 8.265625 -3.703125 C 7.671875 -3.222656 7.113281 -2.796875 6.59375 -2.421875 C 6.082031 -2.054688 5.550781 -1.75 5 -1.5 C 3.8125 -0.925781 2.59375 -0.765625 1.34375 -1.015625 C -0.0820312 -1.273438 -1.425781 -2.363281 -2.6875 -4.28125 C -3.8125 -5.9375 -4.625 -7.859375 -5.125 -10.046875 C -5.625 -12.242188 -5.660156 -13.988281 -5.234375 -15.28125 Z M 4.15625 -13.3125 C 3.800781 -12.800781 3.40625 -12.390625 2.96875 -12.078125 C 2.914062 -11.710938 2.894531 -11.351562 2.90625 -11 C 2.925781 -10.644531 2.878906 -10.265625 2.765625 -9.859375 C 2.660156 -9.453125 2.59375 -9.269531 2.5625 -9.3125 C 2.582031 -8.613281 2.664062 -7.941406 2.8125 -7.296875 C 2.96875 -6.648438 3.34375 -6.15625 3.9375 -5.8125 C 4.757812 -6.320312 5.3125 -6.769531 5.59375 -7.15625 C 5.875 -7.539062 6.046875 -8.007812 6.109375 -8.5625 C 6.179688 -9.125 6.132812 -9.691406 5.96875 -10.265625 C 5.695312 -11.359375 5.09375 -12.375 4.15625 -13.3125 Z M 4.15625 -13.3125 "/></g></g></g><g fill="#5e17eb" fill-opacity="1"><g transform="translate(253.247095, 176.755993)"><g><path d="M -5.4375 -15.484375 C -5.664062 -15.867188 -5.65625 -16.332031 -5.40625 -16.875 C -5.164062 -17.425781 -4.785156 -17.894531 -4.265625 -18.28125 C -3.753906 -18.675781 -3.160156 -18.9375 -2.484375 -19.0625 C -1.816406 -19.195312 -1.1875 -19.039062 -0.59375 -18.59375 C -0.03125 -21.238281 1.039062 -22.90625 2.625 -23.59375 C 3.15625 -23.84375 3.75 -23.867188 4.40625 -23.671875 C 4.675781 -25.335938 5.296875 -26.765625 6.265625 -27.953125 C 7.710938 -29.128906 9.039062 -29.59375 10.25 -29.34375 C 10.414062 -29.320312 10.585938 -29.285156 10.765625 -29.234375 C 11.253906 -29.148438 11.554688 -29.078125 11.671875 -29.015625 C 12.410156 -28.742188 13.4375 -27.582031 14.75 -25.53125 C 16.425781 -22.875 17.84375 -20.003906 19 -16.921875 C 19.570312 -15.335938 19.710938 -14.398438 19.421875 -14.109375 C 19.242188 -13.929688 19.0625 -13.800781 18.875 -13.71875 C 18.6875 -13.632812 18.523438 -13.546875 18.390625 -13.453125 C 18.265625 -13.367188 18.273438 -13.207031 18.421875 -12.96875 C 18.410156 -12.1875 18.015625 -11.5 17.234375 -10.90625 C 16.472656 -10.320312 15.648438 -10.066406 14.765625 -10.140625 C 13.796875 -10.191406 13.140625 -10.625 12.796875 -11.4375 C 12.460938 -12.25 12.140625 -13.097656 11.828125 -13.984375 C 11.515625 -14.878906 11.210938 -15.816406 10.921875 -16.796875 C 10.367188 -18.472656 9.820312 -20.25 9.28125 -22.125 C 9.21875 -21.351562 9.320312 -20.078125 9.59375 -18.296875 C 9.863281 -16.515625 10.007812 -15.429688 10.03125 -15.046875 C 10.1875 -14.140625 10.300781 -13.421875 10.375 -12.890625 C 10.445312 -12.367188 10.390625 -11.863281 10.203125 -11.375 C 10.015625 -10.882812 9.789062 -10.5 9.53125 -10.21875 C 9.28125 -9.9375 9.007812 -9.710938 8.71875 -9.546875 C 8.019531 -9.171875 7.367188 -9.097656 6.765625 -9.328125 C 6.597656 -9.441406 6.425781 -9.550781 6.25 -9.65625 C 6.082031 -9.769531 5.875 -9.945312 5.625 -10.1875 C 5.125 -10.738281 4.472656 -11.765625 3.671875 -13.265625 L 3.671875 -13.125 C 3.734375 -13.53125 3.769531 -13.648438 3.78125 -13.484375 C 3.84375 -11.816406 3.910156 -10.769531 3.984375 -10.34375 C 4.054688 -9.925781 4.148438 -9.460938 4.265625 -8.953125 C 4.378906 -8.453125 4.503906 -7.867188 4.640625 -7.203125 C 4.773438 -6.546875 4.921875 -5.972656 5.078125 -5.484375 C 5.234375 -5.003906 5.351562 -4.507812 5.4375 -4 C 5.707031 -1.863281 4.648438 -0.128906 2.265625 1.203125 C 1.765625 1.503906 1.289062 1.691406 0.84375 1.765625 C 0.394531 1.847656 0.0820312 1.703125 -0.09375 1.328125 C -0.53125 0.453125 -1.140625 -1.078125 -1.921875 -3.265625 C -3.484375 -7.609375 -4.546875 -10.363281 -5.109375 -11.53125 C -5.234375 -11.988281 -5.378906 -12.4375 -5.546875 -12.875 C -5.710938 -13.3125 -5.84375 -13.707031 -5.9375 -14.0625 C -6.175781 -14.863281 -6.007812 -15.335938 -5.4375 -15.484375 Z M 9.859375 -15.90625 L 9.890625 -15.859375 C 9.878906 -15.960938 9.867188 -15.976562 9.859375 -15.90625 Z M 9.859375 -15.90625 "/></g></g></g><g fill="#5e17eb" fill-opacity="1"><g transform="translate(275.233848, 160.156666)"><g><path d="M 3.84375 -22.203125 L 3.984375 -22.265625 C 4.023438 -22.296875 4.050781 -22.304688 4.0625 -22.296875 C 4.40625 -22.859375 4.925781 -23.023438 5.625 -22.796875 C 6.082031 -22.628906 6.617188 -22.253906 7.234375 -21.671875 C 7.960938 -20.765625 8.820312 -19.421875 9.8125 -17.640625 C 11.863281 -14.015625 13.101562 -11.875 13.53125 -11.21875 C 14.082031 -10.570312 14.019531 -9.800781 13.34375 -8.90625 C 12.769531 -8.125 12.015625 -7.578125 11.078125 -7.265625 C 10.097656 -6.929688 9.46875 -7.09375 9.1875 -7.75 C 9.25 -7.34375 9.25 -7.019531 9.1875 -6.78125 C 9.132812 -6.550781 8.96875 -6.15625 8.6875 -5.59375 C 8.40625 -5.03125 7.90625 -4.363281 7.1875 -3.59375 C 6.46875 -2.832031 5.671875 -2.175781 4.796875 -1.625 C 3.929688 -1.070312 3.03125 -0.707031 2.09375 -0.53125 C 1.164062 -0.351562 0.316406 -0.53125 -0.453125 -1.0625 C -1.921875 -2.113281 -3.175781 -3.90625 -4.21875 -6.4375 C -4.90625 -8.125 -5.148438 -9.878906 -4.953125 -11.703125 C -4.734375 -13.785156 -4.203125 -15.773438 -3.359375 -17.671875 C -2.710938 -19.085938 -1.925781 -20.234375 -1 -21.109375 C -0.6875 -21.410156 -0.378906 -21.628906 -0.078125 -21.765625 C 0.222656 -21.898438 0.546875 -22.050781 0.890625 -22.21875 C 1.234375 -22.382812 1.578125 -22.515625 1.921875 -22.609375 C 2.828125 -22.835938 3.46875 -22.703125 3.84375 -22.203125 Z M 4.28125 -10.609375 C 4.21875 -10.972656 4.070312 -11.390625 3.84375 -11.859375 C 3.625 -12.328125 3.414062 -12.859375 3.21875 -13.453125 C 2.15625 -11.648438 1.554688 -9.984375 1.421875 -8.453125 C 1.273438 -6.765625 1.859375 -6.109375 3.171875 -6.484375 C 4.210938 -6.921875 4.742188 -7.550781 4.765625 -8.375 C 4.765625 -8.71875 4.695312 -9.113281 4.5625 -9.5625 C 4.4375 -10.007812 4.332031 -10.488281 4.25 -11 C 4.269531 -10.863281 4.28125 -10.734375 4.28125 -10.609375 Z M 4.28125 -10.609375 "/></g></g></g><g fill="#5e17eb" fill-opacity="1"><g transform="translate(290.598773, 148.556618)"><g><path d="M 10.890625 -7.140625 C 10.609375 -5.960938 10.078125 -4.828125 9.296875 -3.734375 C 8.515625 -2.648438 7.613281 -1.707031 6.59375 -0.90625 C 5.570312 -0.113281 4.507812 0.484375 3.40625 0.890625 C 2.3125 1.304688 1.289062 1.421875 0.34375 1.234375 C -0.757812 1.046875 -1.460938 0.554688 -1.765625 -0.234375 C -1.867188 -0.578125 -1.859375 -0.914062 -1.734375 -1.25 C -1.617188 -1.582031 -1.351562 -1.84375 -0.9375 -2.03125 C -0.707031 -2.175781 -0.59375 -2.359375 -0.59375 -2.578125 C -0.601562 -2.796875 -0.632812 -3.023438 -0.6875 -3.265625 C -0.738281 -3.515625 -0.78125 -3.757812 -0.8125 -4 C -0.84375 -4.238281 -0.753906 -4.4375 -0.546875 -4.59375 C 2.890625 -7.039062 4.421875 -8.648438 4.046875 -9.421875 C 3.648438 -9.472656 3.226562 -9.445312 2.78125 -9.34375 C 2.332031 -9.238281 1.875 -9.132812 1.40625 -9.03125 C 0.28125 -8.78125 -0.597656 -8.773438 -1.234375 -9.015625 C -1.742188 -8.929688 -2.363281 -9.175781 -3.09375 -9.75 C -3.4375 -10.019531 -3.738281 -10.328125 -4 -10.671875 C -4.257812 -11.015625 -4.441406 -11.375 -4.546875 -11.75 C -5.160156 -12.445312 -5.320312 -13.609375 -5.03125 -15.234375 C -4.945312 -15.691406 -4.8125 -16.210938 -4.625 -16.796875 C -4.4375 -17.390625 -4.039062 -18.125 -3.4375 -19 C -2.84375 -19.875 -2.195312 -20.671875 -1.5 -21.390625 C -0.8125 -22.117188 -0.132812 -22.703125 0.53125 -23.140625 C 1.207031 -23.585938 1.785156 -23.78125 2.265625 -23.71875 C 2.742188 -23.664062 3.210938 -23.5 3.671875 -23.21875 C 4.140625 -22.9375 4.492188 -22.578125 4.734375 -22.140625 C 5.222656 -21.179688 4.960938 -20.0625 3.953125 -18.78125 C 2.546875 -17.351562 1.9375 -16.5625 2.125 -16.40625 C 2.15625 -16.375 2.125 -16.28125 2.03125 -16.125 C 4.28125 -16.21875 6.054688 -16 7.359375 -15.46875 C 9.148438 -14.707031 10.390625 -13.300781 11.078125 -11.25 C 11.578125 -10.78125 11.601562 -9.75 11.15625 -8.15625 C 11.050781 -7.769531 10.960938 -7.429688 10.890625 -7.140625 Z M 10.890625 -7.140625 "/></g></g></g><g fill="#8c52ff" fill-opacity="1"><g transform="translate(237.696397, 232.819912)"><g><path d="M -4.53125 -29.421875 C -3.957031 -29.054688 -3.597656 -28.796875 -3.453125 -28.640625 C -3.128906 -28.304688 -3.03125 -27.898438 -3.15625 -27.421875 C -3.144531 -27.398438 -3.140625 -27.351562 -3.140625 -27.28125 C -2.296875 -26.519531 -1.625 -25.707031 -1.125 -24.84375 C -0.632812 -23.988281 -0.1875 -23.144531 0.21875 -22.3125 C -0.0820312 -24.851562 -0.234375 -26.757812 -0.234375 -28.03125 C -0.265625 -30.6875 -0.00390625 -32.789062 0.546875 -34.34375 C 0.734375 -34.832031 1.050781 -35.328125 1.5 -35.828125 C 1.957031 -36.328125 2.453125 -36.71875 2.984375 -37 C 3.515625 -37.28125 4.050781 -37.382812 4.59375 -37.3125 C 5.144531 -37.25 5.632812 -36.894531 6.0625 -36.25 C 8.332031 -32.125 10.378906 -28.21875 12.203125 -24.53125 C 14.023438 -20.84375 15.550781 -17.175781 16.78125 -13.53125 L 16.84375 -13.46875 L 16.8125 -13.453125 C 17.101562 -12.585938 16.894531 -11.671875 16.1875 -10.703125 C 15.488281 -9.742188 14.703125 -9.113281 13.828125 -8.8125 C 12.773438 -8.414062 12.03125 -8.578125 11.59375 -9.296875 L 11.140625 -9.984375 L 11.09375 -10.046875 C 10.832031 -10.554688 10.640625 -10.894531 10.515625 -11.0625 C 10.398438 -11.226562 10.328125 -11.363281 10.296875 -11.46875 C 9.960938 -11.988281 9.691406 -12.507812 9.484375 -13.03125 C 9.285156 -13.5625 9.113281 -13.976562 8.96875 -14.28125 C 8.820312 -14.59375 8.6875 -14.890625 8.5625 -15.171875 C 8.4375 -15.460938 8.335938 -15.679688 8.265625 -15.828125 C 8.285156 -14.273438 8.222656 -13.28125 8.078125 -12.84375 C 7.710938 -11.726562 7.007812 -10.804688 5.96875 -10.078125 C 5.300781 -9.640625 4.828125 -9.515625 4.546875 -9.703125 C 3.960938 -10.085938 3.59375 -10.296875 3.4375 -10.328125 C 3.21875 -10.398438 2.925781 -10.59375 2.5625 -10.90625 C 3.738281 -8.320312 4.425781 -6.390625 4.625 -5.109375 C 4.71875 -4.609375 4.773438 -4.144531 4.796875 -3.71875 C 5.003906 -2.875 4.722656 -1.96875 3.953125 -1 C 3.242188 -0.0703125 2.367188 0.554688 1.328125 0.890625 C 0.296875 1.242188 -0.457031 1.0625 -0.9375 0.34375 C -1.425781 -0.363281 -1.941406 -1.328125 -2.484375 -2.546875 C -3.035156 -3.773438 -3.585938 -5.09375 -4.140625 -6.5 C -5.953125 -10.925781 -7.066406 -13.847656 -7.484375 -15.265625 C -7.910156 -16.679688 -8.222656 -17.8125 -8.421875 -18.65625 C -8.847656 -20.644531 -9.039062 -22.179688 -9 -23.265625 C -9.332031 -24.921875 -8.898438 -26.382812 -7.703125 -27.65625 C -6.773438 -28.6875 -5.71875 -29.273438 -4.53125 -29.421875 Z M -4.53125 -29.421875 "/></g></g></g><g fill="#8c52ff" fill-opacity="1"><g transform="translate(257.504539, 217.86537)"><g><path d="M -5.765625 -15.390625 C -5.617188 -16.316406 -5.25 -17.070312 -4.65625 -17.65625 C -4.0625 -18.25 -3.425781 -18.617188 -2.75 -18.765625 C -2.070312 -18.921875 -1.421875 -18.832031 -0.796875 -18.5 C -0.179688 -18.164062 0.21875 -17.5625 0.40625 -16.6875 C 0.476562 -15.238281 0.738281 -13.816406 1.1875 -12.421875 C 1.644531 -11.023438 2.132812 -9.640625 2.65625 -8.265625 C 3.582031 -10.710938 3.8125 -13.472656 3.34375 -16.546875 C 3.195312 -17.460938 3.066406 -18.410156 2.953125 -19.390625 L 2.796875 -20.5 L 2.609375 -22.546875 C 2.453125 -22.984375 2.472656 -23.363281 2.671875 -23.6875 C 2.878906 -24.019531 3.148438 -24.3125 3.484375 -24.5625 C 3.828125 -24.820312 4.171875 -25.070312 4.515625 -25.3125 C 4.867188 -25.550781 5.113281 -25.875 5.25 -26.28125 C 5.394531 -26.695312 5.679688 -27.03125 6.109375 -27.28125 C 6.546875 -27.53125 7 -27.664062 7.46875 -27.6875 C 7.945312 -27.71875 8.378906 -27.644531 8.765625 -27.46875 C 9.148438 -27.300781 9.378906 -27.019531 9.453125 -26.625 C 9.953125 -24.3125 11.269531 -20.285156 13.40625 -14.546875 C 13.875 -13.242188 14.234375 -12.128906 14.484375 -11.203125 C 14.453125 -10.265625 14.148438 -9.410156 13.578125 -8.640625 C 13.015625 -7.878906 12.378906 -7.300781 11.671875 -6.90625 C 10.960938 -6.519531 10.285156 -6.351562 9.640625 -6.40625 C 8.992188 -6.46875 8.582031 -6.847656 8.40625 -7.546875 C 8.195312 -6.703125 7.941406 -5.882812 7.640625 -5.09375 C 7.335938 -4.300781 6.820312 -3.535156 6.09375 -2.796875 C 5.375 -2.066406 4.570312 -1.515625 3.6875 -1.140625 C 2.800781 -0.765625 1.898438 -0.632812 0.984375 -0.75 C 0.078125 -0.863281 -0.722656 -1.335938 -1.421875 -2.171875 C -3.816406 -5.109375 -5.265625 -9.515625 -5.765625 -15.390625 Z M -5.765625 -15.390625 "/></g></g></g><g fill="#8c52ff" fill-opacity="1"><g transform="translate(274.876079, 204.750389)"><g><path d="M 4.796875 -5.359375 C 4.972656 -4.867188 5.097656 -4.410156 5.171875 -3.984375 C 5.242188 -3.566406 5.226562 -3.109375 5.125 -2.609375 C 5.019531 -2.109375 4.847656 -1.582031 4.609375 -1.03125 C 4.378906 -0.476562 4.109375 -0.0078125 3.796875 0.375 C 3.066406 1.226562 2.410156 1.3125 1.828125 0.625 C 1.617188 0.488281 1.414062 0.472656 1.21875 0.578125 C 1.019531 0.691406 0.816406 0.765625 0.609375 0.796875 C 0.0859375 0.929688 -0.378906 0.554688 -0.796875 -0.328125 C -1.285156 -1.617188 -1.914062 -3.148438 -2.6875 -4.921875 C -3.457031 -6.703125 -4.234375 -8.707031 -5.015625 -10.9375 C -6.941406 -16.3125 -8.222656 -21.503906 -8.859375 -26.515625 C -8.859375 -26.785156 -8.875 -27.125 -8.90625 -27.53125 C -8.945312 -27.945312 -8.921875 -28.375 -8.828125 -28.8125 C -8.617188 -29.914062 -7.898438 -30.675781 -6.671875 -31.09375 C -6.515625 -30.820312 -6.289062 -30.632812 -6 -30.53125 C -5.71875 -30.4375 -5.410156 -30.351562 -5.078125 -30.28125 C -4.265625 -30.113281 -3.726562 -29.816406 -3.46875 -29.390625 C -1.863281 -23.066406 0.359375 -16.328125 3.203125 -9.171875 C 3.523438 -8.335938 3.828125 -7.617188 4.109375 -7.015625 C 4.390625 -6.410156 4.617188 -5.859375 4.796875 -5.359375 Z M 4.796875 -5.359375 "/></g></g></g><g fill="#8c52ff" fill-opacity="1"><g transform="translate(283.303854, 198.387676)"><g><path d="M 4.796875 -5.359375 C 4.972656 -4.867188 5.097656 -4.410156 5.171875 -3.984375 C 5.242188 -3.566406 5.226562 -3.109375 5.125 -2.609375 C 5.019531 -2.109375 4.847656 -1.582031 4.609375 -1.03125 C 4.378906 -0.476562 4.109375 -0.0078125 3.796875 0.375 C 3.066406 1.226562 2.410156 1.3125 1.828125 0.625 C 1.617188 0.488281 1.414062 0.472656 1.21875 0.578125 C 1.019531 0.691406 0.816406 0.765625 0.609375 0.796875 C 0.0859375 0.929688 -0.378906 0.554688 -0.796875 -0.328125 C -1.285156 -1.617188 -1.914062 -3.148438 -2.6875 -4.921875 C -3.457031 -6.703125 -4.234375 -8.707031 -5.015625 -10.9375 C -6.941406 -16.3125 -8.222656 -21.503906 -8.859375 -26.515625 C -8.859375 -26.785156 -8.875 -27.125 -8.90625 -27.53125 C -8.945312 -27.945312 -8.921875 -28.375 -8.828125 -28.8125 C -8.617188 -29.914062 -7.898438 -30.675781 -6.671875 -31.09375 C -6.515625 -30.820312 -6.289062 -30.632812 -6 -30.53125 C -5.71875 -30.4375 -5.410156 -30.351562 -5.078125 -30.28125 C -4.265625 -30.113281 -3.726562 -29.816406 -3.46875 -29.390625 C -1.863281 -23.066406 0.359375 -16.328125 3.203125 -9.171875 C 3.523438 -8.335938 3.828125 -7.617188 4.109375 -7.015625 C 4.390625 -6.410156 4.617188 -5.859375 4.796875 -5.359375 Z M 4.796875 -5.359375 "/></g></g></g><g fill="#8c52ff" fill-opacity="1"><g transform="translate(291.731629, 192.024963)"><g><path d="M 6.796875 -11.78125 C 6.566406 -11.34375 6.316406 -10.945312 6.046875 -10.59375 C 5.773438 -10.238281 5.445312 -9.835938 5.0625 -9.390625 C 4.039062 -8.242188 3.28125 -7.445312 2.78125 -7 C 2.976562 -6.851562 3.4375 -6.835938 4.15625 -6.953125 C 4.539062 -7.171875 4.878906 -7.515625 5.171875 -7.984375 C 5.460938 -8.453125 5.773438 -8.925781 6.109375 -9.40625 C 6.453125 -9.882812 6.828125 -10.296875 7.234375 -10.640625 C 7.648438 -10.984375 8.179688 -11.128906 8.828125 -11.078125 C 9.242188 -10.847656 9.519531 -10.738281 9.65625 -10.75 C 9.800781 -10.769531 9.910156 -10.804688 9.984375 -10.859375 C 10.066406 -10.921875 10.175781 -10.957031 10.3125 -10.96875 C 10.445312 -10.988281 10.75 -10.875 11.21875 -10.625 C 11.6875 -10.382812 11.910156 -9.988281 11.890625 -9.4375 C 11.878906 -8.882812 11.675781 -8.265625 11.28125 -7.578125 C 10.894531 -6.898438 10.378906 -6.191406 9.734375 -5.453125 C 9.085938 -4.722656 8.40625 -4.046875 7.6875 -3.421875 C 6.0625 -1.984375 4.648438 -1.125 3.453125 -0.84375 C 1.816406 -0.300781 0.320312 -0.539062 -1.03125 -1.5625 C -2.820312 -2.894531 -4.0625 -5.109375 -4.75 -8.203125 C -5.070312 -9.628906 -5.179688 -11.347656 -5.078125 -13.359375 C -4.992188 -15.109375 -4.570312 -16.632812 -3.8125 -17.9375 C -2.945312 -19.46875 -1.8125 -20.738281 -0.40625 -21.75 C 1.113281 -22.832031 2.644531 -22.960938 4.1875 -22.140625 C 4.96875 -21.679688 5.726562 -20.789062 6.46875 -19.46875 C 7.34375 -17.664062 7.773438 -16.25 7.765625 -15.21875 C 7.742188 -14.21875 7.421875 -13.070312 6.796875 -11.78125 Z M 1.71875 -15.0625 C 0.550781 -14.519531 0.1875 -13.351562 0.625 -11.5625 C 0.738281 -11.070312 0.894531 -10.585938 1.09375 -10.109375 C 1.800781 -10.515625 2.21875 -11.398438 2.34375 -12.765625 C 2.363281 -13.285156 2.316406 -13.757812 2.203125 -14.1875 C 2.085938 -14.625 1.925781 -14.914062 1.71875 -15.0625 Z M 1.71875 -15.0625 "/></g></g></g><g fill="#8c52ff" fill-opacity="1"><g transform="translate(305.548599, 181.593573)"><g><path d="M -5.984375 -14.125 C -6.242188 -15.007812 -6.257812 -15.8125 -6.03125 -16.53125 C -5.8125 -17.257812 -5.503906 -17.832031 -5.109375 -18.25 C -4.722656 -18.675781 -4.3125 -18.90625 -3.875 -18.9375 C -3.4375 -18.96875 -3.113281 -18.75 -2.90625 -18.28125 C -2.820312 -18.925781 -2.550781 -19.660156 -2.09375 -20.484375 C -1.632812 -21.304688 -1.25 -21.925781 -0.9375 -22.34375 C -0.625 -22.757812 -0.320312 -23.078125 -0.03125 -23.296875 C 0.625 -23.734375 1.0625 -23.519531 1.28125 -22.65625 C 1.65625 -22.851562 2.054688 -22.828125 2.484375 -22.578125 C 2.910156 -22.328125 3.234375 -21.941406 3.453125 -21.421875 C 3.671875 -20.898438 3.738281 -20.273438 3.65625 -19.546875 C 3.570312 -18.816406 3.25 -18.117188 2.6875 -17.453125 C 2.125 -16.796875 1.820312 -16.023438 1.78125 -15.140625 C 1.75 -14.253906 1.859375 -13.28125 2.109375 -12.21875 C 2.566406 -10.414062 3.503906 -8.101562 4.921875 -5.28125 C 5.453125 -4.269531 5.398438 -3.046875 4.765625 -1.609375 C 4.179688 -0.253906 3.363281 0.628906 2.3125 1.046875 C 1.132812 1.503906 0.164062 1.109375 -0.59375 -0.140625 C -1.1875 -0.984375 -1.765625 -2.265625 -2.328125 -3.984375 C -2.898438 -5.703125 -3.328125 -7 -3.609375 -7.875 C -3.890625 -8.757812 -4.117188 -9.421875 -4.296875 -9.859375 Z M -5.984375 -14.125 "/></g></g></g><g clip-path="url(#id1)"><path fill="#5e17eb" d="M 198.324219 214.496094 C 182.964844 219.894531 178.542969 254.328125 178.5 254.671875 C 178.40625 255.433594 177.773438 256.011719 177.007812 256.035156 C 176.25 256.0625 175.574219 255.527344 175.429688 254.773438 C 175.402344 254.636719 172.765625 241.0625 165.804688 227.703125 C 156.628906 210.089844 144.6875 201.160156 130.3125 201.160156 C 112.289062 201.160156 98.324219 215.695312 89.78125 227.882812 C 80.386719 241.285156 75.296875 254.886719 75.246094 255.023438 C 75.019531 255.640625 74.429688 256.039062 73.789062 256.039062 C 73.707031 256.039062 73.621094 256.03125 73.539062 256.015625 C 72.804688 255.898438 72.257812 255.273438 72.234375 254.527344 C 71.160156 218.519531 50.640625 174.917969 50.433594 174.480469 C 50.066406 173.707031 50.394531 172.777344 51.171875 172.410156 C 51.945312 172.042969 52.875 172.371094 53.242188 173.148438 C 53.441406 173.5625 71.824219 212.609375 74.941406 247.75 C 77.367188 242.421875 81.472656 234.328125 87.195312 226.152344 C 92.867188 218.050781 98.953125 211.582031 105.28125 206.929688 C 113.289062 201.039062 121.710938 198.050781 130.3125 198.050781 C 145.738281 198.050781 158.976562 207.828125 168.597656 226.328125 C 172.582031 233.992188 175.160156 241.585938 176.683594 246.90625 C 178.976562 235.867188 184.773438 215.960938 197.292969 211.5625 C 198.105469 211.277344 198.992188 211.703125 199.277344 212.511719 C 199.5625 213.324219 199.136719 214.210938 198.324219 214.496094 Z M 198.324219 214.496094 " fill-opacity="1" fill-rule="nonzero"/></g></svg>